<svg viewBox="0 0 118 320" fill="none" xmlns="http://www.w3.org/2000/svg">
<g clip-path="url(#clip0_4_7156)">
<path d="M47.7102 171.124L47.7131 171.121H47.7111L47.7102 171.124Z" fill="#89D5FF"/>
<path fill-rule="evenodd" clip-rule="evenodd" d="M32.2004 0.590827C30.1497 0.0927697 28.096 -0.0852938 26.0119 0.0371159C26.034 0.226976 26.0836 0.35659 26.2053 0.428717C26.0681 0.359718 26.0146 0.227124 25.9895 0.0263737C25.7112 0.031938 25.4327 0.037411 25.1545 0.0429753C25.1538 0.045262 25.1532 0.0475405 25.1525 0.0498112C24.7695 0.0499044 24.3472 -0.128796 24.0666 0.309577C24.2128 0.425181 24.3538 0.516024 24.4846 0.565436C24.3475 0.518316 24.1987 0.423995 24.0441 0.301764C23.8524 0.312875 23.6607 0.320927 23.4689 0.332038C23.4686 0.333008 23.4674 0.334006 23.467 0.334967C22.228 -0.227164 21.1011 0.487683 19.9738 0.752936C17.3499 1.36509 14.9983 2.61118 12.9504 4.38087C12.5778 4.69552 12.1403 4.99673 12.0764 5.55567C12.069 5.55548 12.0618 5.55459 12.0549 5.55469C12.055 5.55862 12.0548 5.56254 12.0549 5.56641C11.6817 5.60339 11.4379 5.80756 11.2902 6.14258C11.2798 6.14286 11.2694 6.14425 11.259 6.14454L11.2502 6.15626C11.249 6.16076 11.2485 6.16544 11.2473 6.16993C10.0941 6.25225 9.97625 7.31662 9.62032 8.05079C8.83288 9.67018 8.20342 11.3648 7.48555 13.0176C7.24907 13.5629 7.66926 13.9999 7.65547 14.4951C7.58617 16.9012 7.91402 19.3432 7.12422 21.6973C7.11303 21.702 7.10246 21.7083 7.09102 21.7129C7.05486 21.7824 7.03762 21.8578 7.04317 21.9385C7.04472 21.9462 7.04652 21.9541 7.04805 21.9619C6.24026 22.5262 5.7516 23.3118 5.43965 24.2256C5.4299 24.2267 5.42007 24.2272 5.41035 24.2285L5.4045 24.2344C5.40295 24.2431 5.40385 24.2521 5.40254 24.2607C2.99703 25.8739 2.90068 28.1962 5.20137 29.7236C5.80789 30.1243 6.32851 30.4309 6.02266 31.335C5.72667 32.2174 6.71136 32.5227 7.03731 33.1387C7.03109 33.1391 7.02493 33.1402 7.01875 33.1406C7.0271 34.2481 7.01841 35.3307 7.89766 36.2295C8.42073 36.7665 8.16993 37.5568 8.18379 38.2412C8.22553 40.5034 9.63141 41.9898 11.8908 42.0176C12.7923 42.0288 13.733 42.2734 14.6066 41.8115C14.6261 41.6001 14.5729 41.3137 14.8957 41.3359C14.908 41.3367 14.92 41.3421 14.9318 41.3516C14.9271 41.3498 14.923 41.3471 14.9182 41.3467C14.5983 41.3244 14.6476 41.6108 14.6281 41.8223C14.806 41.8 14.9844 41.7752 15.1623 41.7529C15.1601 41.7491 15.1596 41.7443 15.1574 41.7402C16.0645 41.6543 16.9742 41.5521 17.884 41.4912C18.8244 41.43 19.3643 41.981 19.5647 42.8213C20.2297 45.6261 20.4025 48.4701 19.8293 51.3027C19.6818 52.0261 19.175 52.7213 18.6965 53.3223C17.6892 54.5855 16.585 55.83 15.6223 57.0654C14.4147 58.6125 13.1062 60.168 12.0266 61.8682C10.4183 64.3973 8.61303 66.8127 6.96309 69.3252C6.74058 69.6645 6.82659 70.037 6.7961 70.4014C6.79558 70.4184 6.7981 70.4359 6.79805 70.4531C5.69605 72.7824 4.29846 75.0019 4.03828 77.6563C4.05681 77.675 4.07681 77.6888 4.09492 77.7022C4.07037 77.6864 4.04414 77.6674 4.01875 77.6416C3.53749 78.0088 3.79594 78.5488 3.7043 79.0078C3.72706 79.0238 3.74858 79.0406 3.76875 79.0576C3.75445 79.0463 3.73934 79.0352 3.72383 79.0244C3.15026 81.3215 2.92761 83.6354 3.45332 85.9766C3.44857 85.9804 3.44455 85.9854 3.43965 85.9893C3.448 86.1729 3.45655 86.3544 3.46211 86.5381C3.61657 86.5647 3.7266 86.611 3.80489 86.6719C3.72793 86.6173 3.62206 86.5764 3.47871 86.5518C3.39271 90.8677 4.58318 95.0424 4.8791 99.3135C4.87419 99.3195 4.86946 99.3261 4.86446 99.332C4.8728 99.6129 4.88136 99.8938 4.88692 100.172C5.03604 100.204 5.14694 100.254 5.22871 100.317C5.1487 100.261 5.04242 100.216 4.90352 100.186C4.67257 103.875 5.35178 107.543 5.16817 111.232C5.15468 111.524 5.32414 111.823 5.41817 112.12C5.41559 112.125 5.41297 112.129 5.41035 112.134C5.4187 112.877 5.42935 113.62 5.4377 114.36C5.44349 114.366 5.44957 114.371 5.45528 114.376C5.50174 115.671 5.18475 116.981 5.6545 118.252C5.65323 118.26 5.65083 118.268 5.64961 118.275C5.66074 118.453 5.67184 118.632 5.68575 118.81C5.88696 118.843 6.02103 118.91 6.10957 118.998C6.02103 118.917 5.89027 118.855 5.69942 118.823C5.63542 123.537 6.24706 128.214 6.42793 132.908C6.57541 136.74 6.91523 140.56 7.26582 144.358C7.6071 147.996 7.92759 151.697 9.04121 155.235C9.039 155.241 9.03762 155.247 9.03535 155.252C9.03535 155.438 9.03828 155.625 9.03828 155.812C9.23857 155.835 9.38564 155.91 9.47578 156.026C9.38482 155.92 9.24276 155.851 9.05196 155.828C8.89614 157.328 9.35532 158.792 9.33028 160.286C9.80044 163.055 9.71155 165.828 9.36934 168.6C9.5335 172.559 9.64191 176.522 9.88399 180.476C10.0732 183.597 10.1261 186.775 10.7688 189.816C12.4327 197.68 14.0577 205.566 16.4729 213.248C17.5496 216.659 18.2531 220.15 18.7785 223.68C18.7752 223.683 18.7721 223.688 18.7688 223.691C18.7771 224.064 18.7829 224.434 18.7912 224.807C18.985 224.831 19.1113 224.904 19.1926 225.014C19.1109 224.914 18.9884 224.846 18.8049 224.823C18.7075 226.985 19.2193 229.05 20.093 230.979C21.167 233.355 22.4859 235.62 23.6379 237.963C24.442 239.596 24.6646 241.419 24.8371 243.183C25.0152 245.014 25.4995 246.809 25.6164 248.601C25.7695 250.957 26.3259 253.227 26.6125 255.548C27.2302 260.545 28.1071 265.509 28.7443 270.507C29.0282 272.738 29.1472 275.015 29.4338 277.235C29.8539 280.53 30.1378 283.824 30.302 287.13C30.4856 290.842 30.7001 294.565 30.1408 298.269C29.9363 299.608 29.044 300.652 28.5139 301.854C28.5079 301.856 28.5023 301.859 28.4963 301.86C28.4009 301.953 28.3084 302.046 28.2131 302.139C28.2132 302.146 28.213 302.152 28.2131 302.159C27.9813 302.271 27.9745 302.479 27.9719 302.693C27.9658 302.697 27.9606 302.702 27.9543 302.706C27.6844 302.82 27.4921 303.01 27.3947 303.291C27.3951 303.299 27.3954 303.306 27.3957 303.313C26.9295 303.561 26.5725 303.921 26.3225 304.385C26.3145 304.384 26.3061 304.385 26.298 304.385C26.1981 304.399 26.0953 304.409 25.9953 304.423C25.9951 304.431 25.9938 304.44 25.9934 304.448C24.8171 304.995 24.0439 306.227 22.6535 306.401C22.5562 306.471 22.4588 306.538 22.3615 306.607C21.8774 307.626 20.4862 307.109 19.9436 308.032C20.0376 308.213 20.1205 308.39 20.2219 308.516C20.1143 308.39 20.0282 308.205 19.9289 308.016C19.6256 308.55 19.1997 308.919 18.6154 309.167C14.681 310.834 10.6074 312.014 6.39473 312.727C5.08427 312.949 3.75687 313.222 2.51875 313.687C1.62854 314.02 1.00767 314.827 0.687698 315.781C0.690865 315.788 0.696117 315.795 0.699417 315.802C0.0374603 317.415 0.298512 318.186 1.72578 318.951C3.24497 319.766 4.95906 319.555 6.56172 319.925C8.95747 319.546 11.3535 319.538 13.7492 319.931C14.3419 320.061 14.8822 319.805 15.4387 319.693C17.0078 319.218 18.5798 319.285 20.1545 319.669C20.9947 319.58 21.8377 319.49 22.6779 319.401C22.7315 319.368 22.7858 319.339 22.84 319.312L22.6838 319.398C25.453 319.396 28.2224 319.393 30.9943 319.391C30.9974 319.392 31.001 319.393 31.0041 319.394C35.392 319.761 39.7775 320.384 44.1877 319.68C44.3572 319.652 44.5016 319.507 44.6545 319.418C44.1843 318.943 43.6279 319.142 43.091 319.231C41.2546 319.529 39.4206 319.515 37.5842 319.234C37.3561 319.201 37.1305 319.148 36.8996 319.14C32.0525 318.953 27.1997 318.659 22.3498 318.887C17.9757 319.093 13.6071 319.399 9.22188 319.427C7.18513 319.441 5.1788 319.237 3.18379 318.87C2.15167 318.68 1.63536 318.518 1.34688 318.067C1.63772 318.504 2.15524 318.663 3.17305 318.851C5.17085 319.218 7.17439 319.421 9.21114 319.407C13.5935 319.379 17.9622 319.073 22.3391 318.867C27.1862 318.639 32.039 318.934 36.8889 319.12C37.117 319.128 37.3453 319.181 37.5734 319.215C39.4098 319.496 41.2439 319.507 43.0803 319.212C43.6171 319.126 44.1737 318.923 44.6438 319.398C47.0143 318.964 48.6981 316.881 48.84 314.407C48.9736 312.081 48.3913 309.925 47.5705 307.799C46.4909 305.005 45.3367 302.239 45.0695 299.2C44.8664 296.894 44.8221 294.593 45.0725 292.289C45.3118 290.091 45.3781 287.878 45.7287 285.688C46.441 281.242 47.0447 276.779 47.757 272.332C48.4304 268.128 49.2847 263.952 49.8635 259.736C50.2335 257.043 50.2528 254.305 50.2277 251.575C50.1916 247.577 48.9957 243.797 48.1721 239.949C47.5583 237.075 46.6867 234.272 45.7316 231.492C45.7335 231.492 45.7357 231.493 45.7375 231.493C43.979 226.64 43.5024 221.618 43.8391 216.504C44.198 211.033 44.5322 205.563 44.6574 200.081C44.7853 198.687 44.3462 197.262 44.9055 195.894C44.911 195.422 44.9165 194.949 44.9221 194.478L45.0119 194.318C45.4186 193.517 45.1682 192.638 45.1916 191.804C45.2473 189.923 45.203 188.039 45.1975 186.155C44.9966 186.403 44.914 186.667 44.8879 186.938C44.9132 186.665 44.9954 186.399 45.1975 186.149C45.5815 184.235 45.5174 182.29 45.4729 180.364C45.395 177.075 46.0372 173.991 47.7209 171.144L47.9689 170.89C50.4869 168.255 51.8095 165.023 52.3566 161.471C53.3026 155.335 52.599 149.348 50.4982 143.513C50.3842 143.19 50.281 142.903 49.925 142.792L49.8996 142.472C49.8219 141.517 49.6588 140.6 48.8371 139.963C48.8125 139.438 48.9418 138.846 48.2609 138.596L48.2473 138.576C48.2973 138.025 48.3438 137.475 47.715 137.183H47.718C47.7168 137.182 47.7162 137.18 47.715 137.18C47.3694 134.699 46.0406 132.562 45.259 130.231C44.9056 129.174 44.8189 127.978 43.8479 126.965C42.8016 130.243 41.7831 133.437 40.7619 136.629C42.0419 136.033 42.0085 134.647 42.3313 133.606C42.5901 132.766 43.1415 132.079 43.3195 131.214C43.3763 130.937 43.883 130.89 44.3498 131.017C43.8837 130.892 43.3781 130.939 43.3215 131.214C43.1434 132.079 42.5958 132.766 42.3342 133.606C42.0114 134.647 42.0476 136.033 40.7648 136.629C39.7381 139.47 38.7083 142.311 37.9543 145.243L37.7219 145.771C36.5893 148.417 35.9166 151.222 34.9436 153.922C34.1005 156.262 33.603 158.672 33.2746 161.126C33.607 162.471 33.6541 163.819 33.4602 165.166L33.5002 164.854C33.6439 163.611 33.5793 162.368 33.2746 161.126L33.2883 166.099C33.9365 168.647 33.3717 171.188 32.8625 173.622C31.9804 177.84 31.1954 182.123 29.3283 186.077C28.8804 187.031 28.4053 187.975 27.9406 188.921C27.9423 188.921 27.9439 188.92 27.9455 188.92C27.9452 188.922 27.9448 188.923 27.9445 188.925C27.098 189.827 26.232 190.713 25.4133 191.637C24.4645 192.708 23.2182 193.159 21.8772 193.354C19.384 193.715 17.8202 192.635 16.799 190.075C16.1202 188.378 16.0698 186.572 15.7248 184.819C15.4271 183.325 14.7733 182.042 13.5129 181.124C13.3543 182.318 14.4169 183.03 14.7814 184.04C15.5244 186.099 15.4215 188.289 16.2229 190.307C16.5791 191.205 17.4309 191.973 17.1916 193.095C17.1811 193.15 17.3939 193.329 17.4895 193.321C17.4885 193.321 17.4875 193.322 17.4865 193.322C17.3921 193.333 17.1753 193.151 17.1857 193.095C17.425 191.973 16.5732 191.205 16.217 190.307C15.4156 188.287 15.5213 186.096 14.7756 184.04C14.4111 183.03 13.3492 182.318 13.507 181.125C12.8102 180.929 12.5448 180.465 12.5031 179.744C12.3223 176.544 12.1968 173.355 13.218 170.244C13.8746 168.241 14.3757 166.179 15.5832 164.401C15.6838 164.252 15.7654 164.153 15.8303 164.133C15.7668 164.159 15.6874 164.256 15.591 164.398C14.3836 166.179 13.8824 168.241 13.2258 170.241C12.2046 173.352 12.3301 176.541 12.5109 179.741C12.5527 180.465 12.8198 180.929 13.5207 181.124C12.4356 177.32 13.2117 173.597 13.9797 169.866C14.3692 167.957 15.3021 166.26 16.0061 164.471C16.0059 164.469 16.0062 164.467 16.0061 164.466C16.6435 163.941 17.0207 163.229 17.3752 162.503C16.154 161.913 17.2798 161.427 17.4611 160.915C17.5641 160.623 18.187 160.233 17.5783 160.083C16.5822 159.841 16.8601 159.164 16.8322 158.574C16.7794 157.517 16.9102 156.426 16.6877 155.408C16.4874 154.493 16.9073 154.356 17.55 154.033C17.7107 153.952 17.8449 153.917 17.9592 153.914C17.8462 153.918 17.7139 153.954 17.5559 154.033C16.9131 154.359 16.496 154.493 16.6936 155.408C16.916 156.426 16.7853 157.517 16.8381 158.574C16.8687 159.164 16.5873 159.841 17.5832 160.083C18.1922 160.23 17.5705 160.622 17.467 160.914C17.2862 161.426 16.1565 161.913 17.3801 162.503C18.6905 160.614 19.487 158.505 19.8654 156.26C20.3579 153.324 20.7723 150.371 21.1535 147.419C21.3538 145.872 21.409 144.308 21.5314 142.753C20.3603 143.671 20.616 145.102 20.5158 146.265C20.2988 148.763 20.0714 151.251 19.6262 153.722C19.5511 154.139 19.4925 154.534 19.1447 154.868C19.1431 154.868 19.1414 154.866 19.1398 154.866C19.4864 154.533 19.5453 154.139 19.6203 153.722C20.0655 151.254 20.2939 148.763 20.5109 146.265C20.6111 145.102 20.3551 143.671 21.5266 142.753C21.5377 142.567 21.5486 142.383 21.5598 142.196C21.1313 142.152 21.0927 141.952 21.1623 141.534C21.5212 139.383 21.5741 137.199 21.7717 135.031C22.1584 130.819 22.5224 126.617 23.5686 122.51C23.6936 122.02 23.4772 121.213 24.3313 121.052C25.5638 117.966 25.675 114.822 25.0852 111.563C24.5231 108.45 24.117 105.297 23.8137 102.145C23.1292 95.0159 22.9313 87.8623 22.884 80.7031C22.8729 79.1505 22.6701 77.5863 22.9094 76.0059C23.1988 78.9525 23.4072 81.913 23.7912 84.8457C24.3227 88.9026 24.5678 92.988 25.1076 97.0449C25.6725 101.28 26.2349 105.509 27.1086 109.691C27.2616 110.428 27.509 111.146 27.7121 111.872C27.717 111.872 27.7219 111.874 27.7268 111.874C28.483 114.586 28.1233 117.174 27.2414 119.836C25.7361 124.385 24.9016 129.102 24.3479 133.863C23.9889 136.918 23.3832 139.945 23.2551 143.027C23.2502 143.028 23.2453 143.028 23.2404 143.028C23.2293 143.212 23.2154 143.396 23.2043 143.582C23.2468 143.586 23.2857 143.594 23.3225 143.602C23.2897 143.595 23.2551 143.588 23.218 143.585C22.6726 145.254 22.7002 147.014 22.4387 148.728C21.772 153.069 21.5497 157.498 19.9152 161.654C19.9078 161.66 19.9003 161.666 19.8928 161.672L19.885 161.68C19.8858 161.683 19.8871 161.686 19.8879 161.688C17.5012 164.629 15.9071 167.949 15.1848 171.672C14.7619 173.848 14.5117 176.048 14.6174 178.271C14.648 178.917 14.5983 179.641 15.5109 179.732C16.4455 179.824 16.7011 179.146 16.8068 178.431C16.882 177.927 16.9603 177.448 17.4055 176.741C17.4055 178.463 17.3807 179.911 17.4113 181.357C17.4586 183.478 17.5951 185.596 17.968 187.686C18.2406 189.219 18.6689 190.809 20.3381 191.308C22.016 191.808 23.4629 191.135 24.6955 189.853C27.2637 187.179 28.6389 183.923 29.6184 180.42C30.4587 177.404 31.2568 174.371 31.7131 171.282C32.0025 169.332 32.1002 167.267 31.7941 165.33C31.1042 160.964 32.0639 156.905 33.4523 152.856C36.7636 143.212 40.0581 133.565 43.3693 123.921C43.6198 123.184 43.9008 122.451 43.8313 121.645C43.83 121.644 43.8286 121.644 43.8273 121.644C44.1492 121.432 44.0682 121.091 44.093 120.785C43.6784 120.493 43.9058 120.156 43.9865 119.797C44.5987 117.051 44.9417 114.274 44.925 111.452C44.9194 110.534 44.9752 109.618 45.0559 108.697C45.2923 105.993 45.3617 103.271 45.4563 100.556C45.4811 99.8657 45.0024 99.2344 44.3625 99.418C42.2257 100.027 40.1417 99.0898 38.0383 99.3623C37.0756 99.4875 36.2961 99.1428 35.5949 98.5391C35.6411 98.4503 35.6942 98.3933 35.7502 98.3555C35.6992 98.3934 35.6505 98.4478 35.6086 98.5303C36.3098 99.1313 37.0864 99.476 38.052 99.3535C40.1554 99.0809 42.2393 100.018 44.3762 99.4092C45.0189 99.2255 45.495 99.8578 45.4699 100.548C45.3753 103.264 45.306 105.985 45.0695 108.689C44.9888 109.61 44.9331 110.529 44.9387 111.444C44.9553 114.266 44.6133 117.043 44.0012 119.789C43.9205 120.148 43.6922 120.487 44.1066 120.776C45.022 118.737 45.3834 116.527 45.4279 114.365C45.4919 111.413 45.6786 108.467 45.801 105.518C45.9373 102.351 46.238 99.1866 46.302 96.0117C46.2977 96.0123 46.2935 96.013 46.2893 96.0137C46.292 95.8295 46.2933 95.6451 46.2961 95.4609C45.857 95.4108 45.8732 95.1886 45.9094 94.791C46.0254 93.5394 46.2868 92.2682 45.7619 91.0381C45.7618 91.0267 45.7621 91.0153 45.7619 91.0039C45.7597 91.0044 45.7573 91.0044 45.7551 91.0049C46.4736 89.7936 46.2775 88.4553 46.3107 87.1445C46.3274 86.41 46.271 85.7695 45.2609 86.1201C44.8104 86.2758 44.5321 86.1342 44.4152 85.7002C44.3479 85.4497 44.3464 85.1868 44.5266 85.0313C44.3552 85.187 44.3588 85.4435 44.427 85.6914C44.5438 86.1255 44.8247 86.2681 45.2727 86.1123C46.2826 85.7618 46.341 86.4012 46.3215 87.1357C46.2881 88.4491 46.4854 89.7907 45.7619 91.0039C46.3016 92.2421 46.038 93.5218 45.9211 94.7822C45.8849 95.1829 45.8682 95.403 46.3078 95.4531C46.7057 92.2226 46.881 88.9751 46.8615 85.7168C46.858 85.7169 46.8543 85.7167 46.8508 85.7168C46.8563 85.536 46.8611 85.3526 46.8693 85.1719C46.5689 83.8504 46.0934 82.5172 47.1057 81.2764C47.1112 80.809 47.1175 80.3412 47.1203 79.8711C46.4414 78.0959 46.7054 76.2564 46.9475 74.4756C47.056 73.6687 46.8108 72.6942 47.5314 71.9902C47.6929 71.8316 47.8602 71.6683 48.0402 71.5899C47.8661 71.6706 47.7046 71.831 47.5461 71.9854C46.8254 72.6893 47.0696 73.6628 46.9611 74.4697C46.7191 76.2505 46.4551 78.09 47.134 79.8652C47.5959 78.5352 47.4071 77.1385 47.7326 75.7695C47.7298 77.0465 47.7297 78.3207 47.7297 79.5977C47.8465 79.583 47.957 79.5615 48.0549 79.5283C47.9535 79.5643 47.8376 79.5882 47.715 79.6035C47.715 80.0709 47.7131 80.5384 47.7131 81.0029C47.7149 81.0047 47.7171 81.0061 47.7189 81.0078C47.2211 81.5599 47.465 82.2367 47.4484 82.8565C47.4012 84.5604 47.5013 86.2699 47.1936 87.96C47.1796 92.6873 47.1676 97.4091 47.1564 102.131C47.2701 102.044 47.3367 101.943 47.3762 101.834L47.3752 101.839C47.3356 101.949 47.2692 102.05 47.1564 102.137C47.3094 103.01 46.77 103.879 47.1984 104.774C47.9219 101.981 48.6646 99.2034 48.8371 96.3096C48.8354 96.308 48.8339 96.3062 48.8322 96.3047C49.3109 95.8056 49.0213 95.1898 49.0793 94.626C48.9948 94.626 48.9099 94.6256 48.8254 94.6279C48.8256 94.6267 48.8252 94.6253 48.8254 94.624L48.8234 94.6211C48.6231 94.7491 48.5278 94.9217 48.6057 95.1582C48.6158 95.1857 48.6645 95.2015 48.7004 95.2207C48.6996 95.2249 48.6982 95.2293 48.6975 95.2334C48.6613 95.2112 48.6031 95.1937 48.592 95.1631C48.5115 94.9268 48.6086 94.7539 48.8088 94.626C48.984 94.0155 48.4223 93.1952 49.2043 92.7578C48.4456 93.1972 48.9978 94.0114 48.8234 94.6182L48.8254 94.624C48.9144 94.624 49.0039 94.6211 49.093 94.6211C49.5159 94.0201 49.368 93.3351 49.3791 92.6729C49.3754 92.6743 49.372 92.6762 49.3684 92.6777C49.6302 92.3503 49.6911 91.9731 49.6301 91.5684C49.2377 91.5211 49.0869 91.3288 49.1564 90.917C49.3484 89.7568 49.3373 88.5242 49.7463 87.4502C50.0463 86.6572 49.4442 85.6172 50.2824 85.0088L50.2941 85.001C49.4557 85.6094 50.058 86.6493 49.758 87.4424C49.3491 88.5164 49.3629 89.749 49.1682 90.9092C49.0987 91.3209 49.2486 91.5132 49.6408 91.5606C50.0165 89.3457 50.5568 87.1553 50.4816 84.8848C50.4788 84.8863 50.4757 84.8881 50.4729 84.8897C50.8762 84.284 50.7653 83.6088 50.7375 82.9424C49.9641 82.7894 50.1499 82.1443 50.2307 81.7158C50.751 78.911 50.3531 76.0836 50.4895 73.2705C50.5145 72.7808 50.306 72.2406 50.7512 71.8232C50.6568 71.0804 51.0541 70.2763 50.4699 69.5947C50.3196 69.5086 50.0501 69.4385 50.0334 69.3301C49.7802 67.6691 49.4435 66.0273 48.926 64.4219C48.8881 64.3048 48.9113 64.227 48.966 64.1719C48.9172 64.2266 48.8987 64.3029 48.9348 64.4141C49.4522 66.0167 49.7862 67.6585 50.0422 69.3223C50.0591 69.4307 50.3258 69.5007 50.4787 69.5869C50.4203 67.667 49.9856 65.8244 49.3596 64.0186C49.357 64.0191 49.3543 64.019 49.3518 64.0195C49.3227 63.5078 49.1468 63.0431 48.8811 62.6084C48.3276 62.6278 47.9853 62.3603 47.9963 61.8096C48.0213 60.7077 47.3649 59.8361 47.0783 58.8428C46.9418 58.3671 46.4022 57.9248 46.8557 57.3545C46.8252 56.606 46.5349 55.971 46.0236 55.4297C46.0292 55.4308 46.0346 55.4335 46.0402 55.4346C45.4225 53.498 44.4149 51.7307 43.4855 49.9443C41.4405 46.0183 40.2221 41.8752 39.6545 37.5068C39.3679 35.3031 39.1677 33.1159 39.6574 30.9121C40.0832 28.9839 41.1602 27.3589 42.0256 25.6338C43.5559 22.5843 44.215 19.3733 44.4738 15.9482C44.7576 12.1669 43.2357 9.13909 41.2463 6.32325C39.0788 3.24863 35.8871 1.459 32.2004 0.590827ZM50.7522 146.604C51.1378 147.85 51.5447 149.091 51.7033 150.394C52.0177 152.97 52.2286 155.527 51.9504 158.132C51.8168 159.387 52.0399 160.676 51.6643 161.928C51.5447 162.323 51.5581 162.709 50.9768 162.793C49.786 162.963 49.7556 163.761 50.1867 164.626C50.5679 165.388 50.2394 165.89 49.9611 166.619C49.355 168.215 47.714 169.274 47.7219 171.138C46.5159 171.428 46.3183 172.566 46.0207 173.447C45.3418 175.451 44.9214 177.516 44.8908 179.675C44.8546 182.298 44.4873 184.919 44.4094 187.543C44.3621 189.101 44.7739 190.657 44.6516 192.234C44.6182 192.649 44.7494 193.114 44.6076 193.476C44.0317 194.953 44.2012 196.417 44.3098 197.958C44.4517 199.967 44.2594 202.018 44.0451 204.032C43.867 205.713 43.8422 207.4 43.717 209.063C43.5083 211.868 43.7173 214.69 43.2443 217.48C42.6684 220.875 43.2052 224.214 44.0344 227.512C44.2931 228.541 44.6574 229.543 44.8967 230.575C44.9398 230.763 44.9878 230.932 45.0588 231.072C44.9824 230.929 44.9319 230.754 44.8859 230.559C44.6467 229.526 44.2814 228.525 44.0227 227.495C43.1935 224.198 42.6567 220.856 43.2326 217.464C43.7056 214.67 43.4948 211.849 43.7063 209.047C43.8315 207.383 43.8535 205.696 44.0344 204.016C44.2486 202.001 44.4409 199.95 44.299 197.941C44.1905 196.403 44.02 194.936 44.5959 193.459C44.7378 193.094 44.6074 192.632 44.6408 192.218C44.7632 190.64 44.3513 189.085 44.3986 187.526C44.4766 184.9 44.8439 182.281 44.8801 179.657C44.908 177.495 45.3311 175.434 46.01 173.431C46.3076 172.549 46.5021 171.411 47.7111 171.121C47.7015 169.256 49.3457 168.196 49.9494 166.6C50.2249 165.871 50.5532 165.372 50.175 164.607C49.7438 163.742 49.7774 162.943 50.965 162.773C51.5464 162.69 51.533 162.303 51.6525 161.908C52.0282 160.659 51.8061 159.367 51.9397 158.112C52.2206 155.511 52.006 152.951 51.6916 150.374C51.5768 149.405 51.321 148.467 51.0383 147.534L50.7522 146.604ZM18.4943 205.115L18.3537 205.093C18.1603 205.081 17.9413 205.142 17.6867 205.243C17.9005 205.554 18.111 205.745 18.342 205.815L18.4836 205.844C18.1953 205.817 17.9433 205.619 17.6867 205.243C18.0051 205.114 18.2679 205.052 18.4943 205.115ZM18.6252 205.168C18.6467 205.18 18.6679 205.193 18.6887 205.207L18.6252 205.168C18.6039 205.156 18.5827 205.146 18.5607 205.138L18.6252 205.168ZM17.7912 193.303C19.0817 193.273 20.2463 193.968 21.5598 194.02H21.5539C20.2425 193.968 19.0794 193.275 17.7912 193.303ZM44.9445 188.278C44.9053 190.096 44.9189 191.918 44.9211 193.736C44.9192 192.431 44.9108 191.126 44.9211 189.821L44.9445 188.278ZM21.1252 186.794C20.8725 186.899 20.6675 187.097 20.5529 187.457C20.2692 188.353 21.1864 188.551 21.7541 188.893C22.3551 189.257 22.7059 189.831 23.0314 190.418C23.0357 190.433 22.711 190.72 22.4777 190.795C22.7109 190.713 23.025 190.435 23.0178 190.423C22.6923 189.836 22.3414 189.263 21.7404 188.898C21.1729 188.553 20.2548 188.358 20.5383 187.463C20.6549 187.096 20.8661 186.897 21.1252 186.794ZM29.0578 188.121C28.8472 188.548 28.5429 188.89 27.9914 188.917C28.541 188.888 28.8467 188.548 29.0578 188.121ZM26.1379 184.365C25.6425 184.609 25.6137 185.361 25.4855 185.91C25.3101 186.66 25.1233 187.065 24.758 187.187C25.114 187.059 25.2987 186.656 25.4719 185.916C25.6 185.367 25.6285 184.616 26.1232 184.371L26.1379 184.365ZM12.4387 185.064C12.8282 185.099 13.0221 185.358 13.0793 185.661L13.0461 185.535C12.9627 185.29 12.7727 185.096 12.4387 185.066C12.2872 185.064 12.1531 185.087 12.052 185.152L12.133 185.11C12.2206 185.076 12.3248 185.063 12.4387 185.064ZM37.0246 185.493C37.0051 185.504 36.9876 185.516 36.9729 185.53C37.0026 185.501 37.0414 185.48 37.092 185.468L37.0246 185.493ZM30.5627 155.125C30.2034 155.257 29.9161 155.626 29.757 155.989C29.5094 156.56 29.351 157.45 30.1438 157.667C31.6658 158.082 31.3571 159.217 30.9035 159.927C30.2413 160.965 30.3162 161.766 30.7141 162.835C31.4012 164.68 30.9401 166.647 31.0402 168.559C31.1569 170.812 30.1104 172.88 30.1994 175.15C30.2466 176.361 29.896 177.727 28.6301 178.578C28.0655 178.956 28.1568 179.749 28.3098 180.397C28.5852 181.569 28.2965 182.665 27.8986 183.742C27.8079 183.987 27.6925 184.339 27.4406 184.424C27.6815 184.33 27.7951 183.988 27.884 183.748C28.2819 182.671 28.5743 181.575 28.2961 180.403C28.1431 179.755 28.0517 178.962 28.6164 178.584C29.8825 177.733 30.233 176.366 30.1857 175.155C30.0968 172.882 31.1425 170.817 31.0256 168.563C30.9255 166.652 31.3876 164.685 30.7004 162.84C30.3026 161.771 30.2277 160.97 30.8898 159.933C31.3406 159.223 31.652 158.087 30.1301 157.673C29.3371 157.456 29.4957 156.566 29.7434 155.995C29.9045 155.626 30.1969 155.252 30.5627 155.125ZM32.1828 179.309C31.791 181.016 31.2388 182.666 30.6184 184.292L30.8479 183.681C31.3746 182.252 31.8399 180.802 32.1828 179.309ZM18.6994 181.629C18.4364 181.787 18.5565 182.268 18.2316 182.353C18.5437 182.257 18.4254 181.777 18.6994 181.629ZM37.2004 180.695C37.4855 180.739 37.6374 180.956 37.6428 181.244C37.6481 181.597 37.4005 181.683 37.1057 181.675C37.3993 181.68 37.6479 181.596 37.6398 181.244C37.6345 180.957 37.4838 180.742 37.2004 180.695ZM36.6359 181.238C36.653 181.539 36.8136 181.658 37.0793 181.672C36.8129 181.66 36.653 181.539 36.6359 181.238ZM43.4758 181.353C42.7023 181.505 41.9673 181.322 41.3156 181.625C42.0141 181.298 42.806 181.533 43.6428 181.313L43.4758 181.353ZM39.7941 181.216C39.7969 181.209 39.798 181.201 39.798 181.193L39.7941 181.216ZM36.9445 180.724C36.7844 180.798 36.7083 180.971 36.6379 181.094L36.716 180.952C36.7703 180.86 36.8397 180.772 36.9445 180.724ZM17.3547 175.379C16.4041 175.703 15.5824 176.912 15.9143 177.811C16.0094 178.066 16.3925 178.345 15.9816 178.537C16.3707 178.345 15.9944 178.068 15.9006 177.815C15.5647 176.912 16.3964 175.695 17.3547 175.379ZM15.8791 172.068C15.9723 172.01 16.1061 172.093 16.3176 172.471C16.3922 172.606 16.5154 172.703 16.6193 172.66C16.5128 172.717 16.3817 172.616 16.3039 172.476C16.1022 172.113 15.9715 172.024 15.8791 172.068ZM12.2238 168.131C12.3022 168.238 12.4365 168.31 12.6672 168.323L12.6643 168.324C12.3963 168.308 12.2594 168.212 12.1887 168.074L12.2238 168.131ZM13.6057 167.539C13.5047 167.871 13.333 168.169 12.9875 168.279C13.3315 168.169 13.5043 167.87 13.6057 167.539ZM17.8645 165.959C18.4042 166.009 18.1957 166.994 18.7658 166.791C18.7612 166.793 18.7568 166.795 18.7522 166.797C18.1846 166.999 18.3884 166.025 17.8586 165.966C17.8606 165.964 17.8624 165.961 17.8645 165.959ZM34.0266 162.474C34.0495 163.892 34.1528 165.292 34.0402 166.704C34.1736 165.006 33.9969 163.326 34.0246 161.608L34.0266 162.474ZM49.7063 161.383C49.7847 161.707 50.0228 161.882 50.3586 161.916C49.972 161.877 49.7162 161.654 49.6828 161.234L49.7063 161.383ZM50.967 161.468C50.8875 161.668 50.7332 161.819 50.4563 161.895L50.3586 161.916C50.6964 161.852 50.8782 161.691 50.967 161.468ZM36.1906 137.936C35.6193 138.16 35.2016 138.654 34.6486 138.894C34.056 139.15 33.973 139.515 34.5295 139.901C35.5556 140.616 35.2748 141.365 34.7463 142.271C34.3456 142.959 33.4303 143.746 34.6652 144.65C34.7793 144.734 35.5419 146.387 34.2287 146.924C33.8837 147.066 33.9111 147.233 34.0168 147.559C34.5288 149.15 34.2201 150.085 32.8234 151.187C32.3756 151.54 32.3084 151.999 32.4641 152.425C32.7423 153.184 32.3806 153.88 32.3527 154.604C32.3405 154.929 32.2714 155.287 32.0022 155.38C32.2608 155.28 32.3287 154.929 32.3391 154.609C32.3641 153.886 32.7286 153.19 32.4504 152.431C32.2946 152.005 32.3618 151.546 32.8098 151.192C34.2063 150.091 34.5149 149.153 34.0031 147.564C33.8974 147.239 33.87 147.072 34.215 146.93C35.5281 146.393 34.7656 144.737 34.6516 144.656C33.4161 143.752 34.3319 142.967 34.7326 142.277C35.2613 141.37 35.5388 140.624 34.5148 139.906C33.9587 139.52 34.0424 139.155 34.635 138.899C35.1877 138.66 35.6048 138.165 36.176 137.94L36.1906 137.936ZM18.4553 147.854C18.4593 147.9 18.457 147.949 18.4514 147.998C18.4208 148.248 18.2707 148.432 18.0314 148.479C17.919 148.5 17.8434 148.465 17.7912 148.391C17.8434 148.465 17.9188 148.499 18.0314 148.477C18.2707 148.432 18.4208 148.246 18.4514 147.995C18.4569 147.947 18.459 147.899 18.4553 147.854ZM50.3615 148.09C50.4589 148.098 50.5981 148.207 50.6203 148.296V148.299C50.5981 148.21 50.4589 148.101 50.3615 148.093C50.2201 148.08 50.0953 148.142 50.0695 148.262C50.0942 148.141 50.2192 148.079 50.3615 148.09ZM17.6926 148.067C17.7016 148.135 17.7128 148.197 17.7287 148.252L17.6926 148.067C17.717 148.022 17.7382 147.97 17.7629 147.916L17.6926 148.067ZM38.2297 145.684C38.4611 146.3 38.0126 146.811 37.7316 147.348C38.025 146.787 38.5011 146.253 38.1936 145.599L38.2297 145.684ZM17.3137 140.028C16.9491 140.153 16.7952 140.554 16.9016 141.173C17.0435 141.985 17.2359 142.786 17.3723 143.599C17.4335 143.963 17.3669 144.45 17.7814 144.542C17.8168 144.55 17.8503 144.554 17.882 144.556C17.8495 144.554 17.815 144.55 17.7785 144.542C17.3639 144.45 17.4306 143.963 17.3693 143.599C17.2358 142.786 17.0405 141.982 16.8986 141.173C16.7902 140.554 16.9461 140.152 17.3137 140.028ZM19.2268 142.088C18.9387 142.18 18.6301 142.273 18.2893 142.385C18.8078 142.215 19.2507 142.089 19.6623 141.941L19.2268 142.088ZM48.8381 140.112C48.8637 140.791 48.9631 141.439 49.3557 141.962L49.2561 141.819C48.9438 141.324 48.86 140.731 48.8381 140.112ZM30.9885 140.99C31.0419 141.023 31.1075 141.035 31.1828 141.032L31.1818 141.033C31.1077 141.037 31.0426 141.024 30.9895 140.991L30.9885 140.99ZM31.2121 140.357C31.0659 140.392 30.9496 140.545 30.8498 140.632C30.9496 140.546 31.0657 140.392 31.2092 140.357C31.2356 140.351 31.2609 140.349 31.2844 140.35C31.2617 140.349 31.2374 140.352 31.2121 140.357ZM18.8049 140.349C19.1527 140.468 19.506 140.555 19.8938 140.54C19.5054 140.556 19.1533 140.47 18.8068 140.35L18.8049 140.349ZM43.5412 121.619C43.5013 121.638 43.4834 121.683 43.4553 121.77C42.5482 124.471 41.6575 127.18 40.7365 129.876C39.9547 132.174 39.109 134.45 38.3605 136.757C38.1913 137.277 37.8258 137.673 37.4553 137.805C37.8209 137.668 38.1797 137.276 38.3469 136.763C39.0954 134.453 39.9382 132.176 40.7229 129.881C41.6411 127.185 42.5345 124.477 43.4416 121.775C43.4742 121.681 43.4916 121.634 43.5412 121.619ZM19.6535 136.653C19.8232 136.676 20.0601 136.69 19.9992 136.951C19.9637 137.104 19.8369 137.157 19.6984 137.164L19.5588 137.157C19.7397 137.179 19.9491 137.154 19.9992 136.951C20.0601 136.69 19.8232 136.678 19.6535 136.653C19.4848 136.63 19.3268 136.66 19.2287 136.816C19.3244 136.658 19.4837 136.63 19.6535 136.653ZM37.0666 135.544C37.5396 135.491 37.7036 135.794 37.6897 136.223C37.6847 136.374 37.6722 136.533 37.6359 136.673C37.6719 136.534 37.6848 136.376 37.6897 136.226C37.7036 135.797 37.5396 135.49 37.0666 135.546C36.9251 135.561 36.7811 135.581 36.6477 135.622C36.781 135.581 36.9249 135.56 37.0666 135.544ZM26.967 125.643C26.9651 125.643 26.9631 125.644 26.9611 125.644C26.9032 125.638 26.8482 125.636 26.7971 125.636C26.85 125.635 26.9066 125.637 26.967 125.643ZM27.7248 122.804C27.4726 122.823 27.349 123.39 27.0354 123.389C27.3444 123.373 27.467 122.802 27.7248 122.804ZM37.174 119.203C37.2454 119.59 37.392 119.865 37.7619 119.986C37.3911 119.867 37.2446 119.591 37.174 119.203ZM41.8498 117.638C42.2693 117.399 42.838 117.221 42.9133 117.859C42.8367 117.224 42.2687 117.402 41.8498 117.641C41.4157 117.885 40.9563 118.119 40.5891 118.45C40.0131 118.968 39.5433 118.689 39.4348 118.172C39.1592 116.848 38.3575 117.783 37.8205 117.738C37.0362 117.669 37.1582 118.314 37.1359 118.932L37.1428 118.474C37.1545 118.034 37.2324 117.685 37.8205 117.735C38.3575 117.78 39.1592 116.845 39.4348 118.169C39.5433 118.689 40.0131 118.965 40.5891 118.447C40.9564 118.119 41.4157 117.885 41.8498 117.638ZM35.84 118.555C35.7862 118.618 35.7177 118.664 35.6359 118.686L35.55 118.698L35.6369 118.685C35.7186 118.663 35.7866 118.617 35.84 118.555ZM35.6203 117.763C35.8224 117.796 35.9398 117.896 35.9709 118.056L35.9475 117.981C35.897 117.865 35.7872 117.792 35.6203 117.766C35.427 117.783 35.3113 117.873 35.257 118.014C35.3108 117.874 35.4253 117.784 35.6203 117.763ZM43.6838 112.201C43.7812 112.21 43.9203 112.318 43.9426 112.407C43.9506 112.443 43.9229 112.489 43.883 112.539L43.7502 112.702L43.882 112.54C43.9223 112.49 43.9509 112.445 43.9426 112.409C43.9201 112.32 43.7811 112.213 43.6838 112.204C43.5396 112.191 43.4132 112.256 43.3908 112.38C43.412 112.255 43.5386 112.191 43.6838 112.201ZM48.4621 96.1289C48.3355 96.1683 48.3006 96.3833 48.2717 96.6045C48.1576 97.5033 48.0496 98.4056 47.7102 99.2988C47.7102 99.2869 47.7111 99.2746 47.7111 99.2627C48.0385 98.3829 48.1457 97.4953 48.258 96.6104C48.2864 96.38 48.3217 96.1547 48.4621 96.1289ZM45.9748 96.1231C45.8284 96.2126 45.7407 96.3516 45.7902 96.541C45.9799 97.2754 45.8379 97.701 45.5422 97.9346C45.8294 97.6989 45.9638 97.2734 45.7766 96.5488C45.7257 96.3536 45.8201 96.2122 45.9748 96.1231ZM36.5217 91.499C36.3895 91.6035 36.2757 91.7416 36.1818 91.9053C36.0428 92.1473 36.1431 92.3647 36.3518 92.501C36.7467 92.7595 37.1417 92.7065 37.5061 92.4258C37.7731 92.2227 38.1074 91.9774 38.3801 92.2275C39.5404 93.296 40.793 92.5756 42.009 92.4727C42.7461 92.4114 43.4638 92.3059 44.1926 92.584C44.9634 92.8762 45.3508 93.0178 45.548 92.8877L45.5363 92.8975C45.3388 93.0281 44.9513 92.8864 44.1818 92.5928C43.4556 92.3173 42.7374 92.4202 41.9973 92.4815C40.7842 92.5845 39.5295 93.3045 38.3693 92.2363C38.0995 91.9859 37.7624 92.2305 37.4953 92.4336C37.1281 92.7146 36.7333 92.7674 36.341 92.5088C36.1323 92.3725 36.032 92.1524 36.1711 91.9131C36.2682 91.7446 36.3856 91.6042 36.5217 91.499ZM32.5256 92.1816C32.512 92.225 32.4949 92.2613 32.467 92.2725C32.4949 92.2599 32.512 92.2246 32.5256 92.1816ZM4.9543 91.7227C5.02941 91.7908 5.11085 91.858 5.20137 91.9219C5.2048 91.9243 5.20781 91.9272 5.21114 91.9297C5.11708 91.8629 5.03162 91.7941 4.9543 91.7227ZM46.2072 78.3516C46.2396 78.4286 46.263 78.5195 46.2766 78.627C46.3823 79.4756 45.6092 79.4865 45.0666 79.6729C44.8215 79.7572 44.5369 79.8988 44.3088 79.8594C44.5364 79.8951 44.8195 79.7569 45.0637 79.6729C45.6063 79.4864 46.3803 79.4756 46.2746 78.627C46.2553 78.4658 46.2133 78.3416 46.1525 78.2461L46.2072 78.3516ZM35.4777 79.3975C36.2952 79.559 37.1462 79.5072 38.007 79.4863C38.7924 79.4665 39.5796 79.4368 40.3654 79.4356C39.5805 79.4369 38.7944 79.4665 38.01 79.4863C37.151 79.5089 36.2996 79.5604 35.4816 79.3984L35.4777 79.3975ZM33.9445 78.7998C33.8183 78.8003 33.6424 78.8677 33.5383 78.9385C33.1947 79.17 32.8577 79.4335 32.4709 79.2393C32.8582 79.4298 33.1924 79.1671 33.5354 78.9385C33.6402 78.8672 33.8182 78.7993 33.9445 78.7998ZM40.3781 78.2207C40.8494 78.2929 41.3187 78.3268 41.7795 78.3281C41.318 78.3268 40.8477 78.2929 40.3752 78.2207C40.3264 78.2133 40.2775 78.2077 40.2287 78.2012C40.2784 78.2077 40.3284 78.2132 40.3781 78.2207ZM34.8166 78.1611C34.9806 78.1754 35.1446 78.1878 35.3088 78.1943H35.3059C35.1426 78.1879 34.9797 78.1752 34.8166 78.1611ZM33.6311 77.9727C33.7982 77.9808 33.9718 78.0494 34.1428 78.0791C34.1905 78.0871 34.2386 78.0925 34.2863 78.0996C34.2376 78.0924 34.1885 78.0873 34.1398 78.0791C33.9698 78.0496 33.7974 77.9814 33.6311 77.9727ZM40.8674 72.4893C41.5203 72.4962 42.1726 72.6431 42.8234 73.0615C42.9973 73.1728 43.172 73.1395 43.341 73.0547L43.4641 72.9854C43.2569 73.1166 43.0387 73.2022 42.8215 73.0615C42.1712 72.6434 41.5195 72.4966 40.8674 72.4893ZM36.5578 73.0928C36.6226 73.0948 36.6874 73.0945 36.7522 73.0938C36.6864 73.0946 36.6206 73.0948 36.5549 73.0928C36.5129 73.0915 36.4709 73.0893 36.4289 73.0879C36.4718 73.0892 36.5149 73.0915 36.5578 73.0928ZM28.9045 72.29C29.5665 72.2933 30.4899 73.0438 31.4006 73.0078L31.3986 73.0088C30.4889 73.0452 29.5665 72.2953 28.9045 72.29ZM44.5666 72.3975C44.6083 72.4018 44.6515 72.4118 44.6965 72.4277C44.942 72.514 45.2105 72.5971 45.4367 72.5967C45.2099 72.5978 44.9401 72.5144 44.6936 72.4277C44.6495 72.4123 44.6074 72.4019 44.5666 72.3975ZM7.44649 71.8594C7.6329 71.8649 7.8534 71.8877 7.81172 72.127C7.78668 72.2717 7.63835 72.4495 7.49922 72.5107C7.42987 72.5401 7.36331 72.5417 7.30684 72.5205C7.36277 72.5407 7.42902 72.5378 7.49727 72.5078C7.63626 72.4492 7.78378 72.2713 7.80879 72.124C7.85313 71.8877 7.62993 71.8659 7.44356 71.8604C7.43787 71.8613 7.43246 71.8632 7.42696 71.8643C7.43341 71.8629 7.43977 71.8605 7.44649 71.8594ZM18.2863 72.2666C18.1422 72.3744 17.9101 72.3516 17.6984 72.3584L17.5617 72.3691C17.8227 72.3317 18.1649 72.4113 18.3313 72.2256L18.2863 72.2666ZM17.5832 71.2754C17.1298 71.3033 16.7071 71.5791 16.7043 72.002C16.7031 72.2413 16.8082 72.3255 16.9523 72.3516L16.8928 72.3369C16.7794 72.2987 16.7014 72.2074 16.7014 72.002C16.7014 71.579 17.1277 71.3032 17.5813 71.2754C17.6389 71.2716 17.6958 71.2708 17.7512 71.2734C17.6965 71.2709 17.64 71.2716 17.5832 71.2754ZM31.0109 70.9121C30.9321 70.9584 30.8503 71.0107 30.7668 71.0693C30.1507 71.4979 29.4495 71.7517 28.7492 71.7344C29.4486 71.751 30.1496 71.4974 30.7648 71.0693C30.8491 71.0107 30.9314 70.9584 31.0109 70.9121ZM32.2307 71.1279C32.476 71.2469 32.745 71.2556 33.0324 71.1973C33.1866 71.1656 33.3435 71.1518 33.5022 71.1484C33.3444 71.1519 33.1885 71.1657 33.0354 71.1973C32.7448 71.2579 32.4761 71.2492 32.2307 71.1279ZM42.1105 70.6738C41.2856 70.6867 40.4641 70.7873 39.6545 71.1504C39.5813 71.1828 39.4991 71.1933 39.4104 71.1895C39.4982 71.1931 39.5794 71.1825 39.6516 71.1504C40.4621 70.7869 41.2847 70.6865 42.1105 70.6738ZM38.9455 71.0801C38.9385 71.0776 38.9311 71.0758 38.924 71.0732L38.9221 71.0723C38.9298 71.0751 38.9378 71.0773 38.9455 71.0801ZM36.7746 70.5518C36.9127 70.3973 37.463 70.5952 37.8967 70.7197C37.4635 70.597 36.9154 70.4002 36.7775 70.5518C36.6619 70.6807 36.5425 70.7866 36.4211 70.874C36.5417 70.7867 36.6598 70.6804 36.7746 70.5518ZM35.3332 65.249C35.3636 65.2048 35.5772 65.2179 35.5832 65.2344C35.9783 67.0622 37.7618 65.6413 38.5939 66.5254C38.9473 66.8983 39.5459 66.915 40.0412 66.7119C41.5353 66.1026 42.9627 66.2282 44.3566 66.9961C44.4707 67.0601 44.666 67.1152 44.7551 67.0596C45.9096 66.353 47.0837 65.9114 48.508 66.1338C48.7318 66.1682 48.8104 65.9539 48.7727 65.7315L48.7736 65.7344C48.8118 65.9566 48.7341 66.1699 48.509 66.1357C47.0872 65.9159 45.9098 66.3586 44.7551 67.0625C44.666 67.1154 44.4707 67.0602 44.3566 66.999C42.9599 66.2284 41.5326 66.1055 40.0412 66.7149C39.5487 66.9152 38.9473 66.9012 38.5939 66.5283C37.7618 65.647 35.9765 67.0652 35.5842 65.2373C35.5811 65.2234 35.3616 65.2068 35.3332 65.251C34.8081 66.0386 34.2026 65.7633 33.5988 65.5479L33.4172 65.4854C34.0802 65.6963 34.7554 66.1172 35.3332 65.249ZM44.0461 59.6025C44.1115 59.6906 44.1744 59.7946 44.2346 59.917C44.2499 59.9484 44.2673 59.9754 44.2854 59.999C44.2663 59.9748 44.2478 59.9467 44.2316 59.9141C44.1714 59.7916 44.1086 59.6876 44.0432 59.5996L44.0461 59.6025ZM36.5305 59.542C36.8539 59.6866 37.2166 59.7354 37.6164 59.6787C37.2168 59.7365 36.8546 59.688 36.5314 59.543L36.5305 59.542ZM45.4895 57.1514C45.6648 57.0359 45.8052 57.0869 45.8967 57.2119C45.8052 57.0901 45.6659 57.0414 45.4924 57.1543C44.4183 57.8555 43.2439 57.4771 42.1281 57.6524C41.6023 57.7358 40.7596 57.6746 40.8039 58.5313C40.8162 58.7695 40.8773 58.9401 40.9709 59.0606C40.8762 58.9399 40.814 58.7683 40.801 58.5283C40.7568 57.6719 41.5994 57.7328 42.1252 57.6494C43.241 57.4741 44.4154 57.8553 45.4895 57.1514ZM35.7727 58.9522C35.8394 58.4457 36.1852 58.0366 36.4885 58.2481L36.4309 58.2158C36.1452 58.0907 35.8379 58.4775 35.7727 58.9522ZM36.7873 58.4238C37.0305 58.5399 37.2617 58.5827 37.4895 58.5781C37.2154 58.584 36.937 58.5206 36.6389 58.3447L36.7873 58.4238ZM31.2551 56.0205C31.2482 56.0471 31.2388 56.074 31.2287 56.1016C31.2489 56.0465 31.2631 55.9936 31.2707 55.9424L31.2551 56.0205ZM44.2209 52.8242C44.2856 52.8019 44.5581 53.434 44.7941 53.709C45.1984 54.181 45.1206 55 45.7219 55.3242C45.0966 55.0083 45.1808 54.176 44.7717 53.6982C44.5572 53.4485 44.3123 52.9067 44.2209 52.8242ZM30.6096 55.3193C30.6457 55.2591 30.8844 55.2379 30.9563 55.2959L30.9221 55.2783C30.8277 55.2463 30.6413 55.2691 30.6096 55.3193ZM20.6564 51.7549C20.5608 51.8665 20.5097 52.0189 20.4943 52.2012C20.5639 52.5629 20.8283 52.616 21.1232 52.5742C21.3358 52.5435 21.4498 52.4335 21.5012 52.2842C21.4506 52.4349 21.336 52.5463 21.1203 52.5772C20.8281 52.6161 20.5638 52.5629 20.4914 52.2012C20.5081 52.0187 20.5605 51.8662 20.6564 51.7549ZM31.1037 51.0049C31.109 51.0079 31.1151 51.0097 31.1203 51.0127C30.9446 50.9178 30.6662 51.1383 30.6057 51.375C30.5114 51.7421 30.708 51.9415 30.9523 52.0518C30.6978 51.9441 30.486 51.7416 30.5832 51.3633C30.6446 51.1214 30.9285 50.9021 31.1037 51.0049ZM32.7014 50.3506C32.8383 49.9944 33.473 49.9621 33.7609 50.1074C33.4641 49.9746 32.8584 50.0147 32.7229 50.3623C32.4049 51.1847 32.0279 51.4802 31.2648 51.0908C32.013 51.4612 32.3865 51.1652 32.7014 50.3506ZM37.3605 48.8281C37.5408 48.9255 37.7012 49.2208 37.6594 49.4775C37.5954 49.8781 37.4785 50.4117 36.9475 50.3369C36.0198 50.2055 35.067 50.893 34.1389 50.3652C35.0623 50.8713 36.0069 50.1982 36.925 50.3262C37.4536 50.4012 37.5729 49.8665 37.6369 49.4658C37.6768 49.2182 37.531 48.9364 37.3605 48.8281ZM33.6076 47.9443C33.5785 48.8894 33.5957 49.2754 33.8518 49.3916C33.5756 49.2896 33.5573 48.9143 33.5861 47.9609C33.5931 47.9552 33.6007 47.9502 33.6076 47.9443ZM29.3566 45.5576C29.5589 45.6815 29.9129 46.086 29.9045 46.4385C29.8711 47.7685 31.0653 48.1917 31.7414 48.9902C31.7948 49.0531 31.8468 49.098 31.8977 49.1279C31.8399 49.0986 31.78 49.0513 31.7189 48.9795C31.0428 48.181 29.8488 47.7577 29.882 46.4277C29.8903 46.087 29.5614 45.6953 29.3566 45.5576ZM27.3293 43.0225C27.4283 43.0838 27.5176 43.1812 27.5725 43.292C27.7476 43.6508 27.7478 44.0064 27.3752 44.2734C26.8382 44.6574 26.2206 44.5192 25.6252 44.5664C25.2329 44.597 24.7732 44.3905 24.4699 44.8135C24.3447 44.9888 24.409 45.2091 24.5676 45.3037C24.8258 45.4544 25.1216 45.7057 25.4055 45.8418C25.1147 45.7086 24.8102 45.4466 24.5451 45.292C24.3868 45.2 24.3233 44.9779 24.4484 44.8027C24.7517 44.3799 25.2104 44.5853 25.6027 44.5547C26.1954 44.5102 26.813 44.6493 27.3527 44.2627C27.7284 43.9956 27.7263 43.6392 27.551 43.2803C27.5001 43.1765 27.4197 43.0841 27.3293 43.0225ZM35.2551 41.3721C35.3077 41.3194 35.5122 41.3318 35.5988 41.3857C35.5023 41.3415 35.324 41.3341 35.2775 41.3828C34.2786 42.3929 33.065 41.5608 31.9826 41.7861C30.5664 42.0782 29.1166 42.1401 27.7004 42.499C26.7544 42.7382 25.7107 42.5902 24.7092 42.6152C24.2863 42.6264 23.7826 42.5991 23.841 43.2139C23.8625 43.4543 23.9352 43.569 24.0363 43.6182C23.9231 43.5758 23.8426 43.4605 23.8195 43.2022C23.7642 42.5877 24.2649 42.6156 24.6877 42.6045C25.6893 42.5795 26.733 42.7266 27.6789 42.4873C29.0951 42.1285 30.545 42.0703 31.9611 41.7754C33.0434 41.553 34.2563 42.3816 35.2551 41.3721ZM38.8264 37.3994C39.0672 37.5005 39.0045 37.9589 39.1281 38.2217C39.6055 39.2286 39.1146 40.3679 39.5764 41.3867L39.7287 41.6787C39.9106 42.0988 39.3619 42.102 39.1506 42.0342C38.1842 41.7184 37.067 42.2634 36.132 41.7852C37.0637 42.2444 38.1701 41.709 39.1291 42.0225C39.3547 42.0947 39.9635 42.0861 39.6604 41.5772C39.0234 40.5088 39.6156 39.2849 39.1066 38.2109C38.9866 37.9585 39.0418 37.5196 38.8264 37.3994ZM35.0998 35.2471C35.8517 35.4069 36.8162 35.1194 37.5598 35.4824C36.8186 35.1346 35.8645 35.4172 35.1213 35.2588C34.309 35.0869 33.9279 36.7726 34.6262 37.5488C34.9629 37.9245 35.381 38.2306 35.7482 38.584C35.9416 38.7719 36.0669 39.0652 36.298 39.1924C36.0537 39.072 35.9272 38.7659 35.7258 38.5723C35.3613 38.2189 34.9441 37.9155 34.6047 37.5371C33.9091 36.7608 34.2873 35.0746 35.0998 35.2471ZM38.592 31.4463C38.4974 33.2772 39.1123 34.9305 38.5725 37.0147C38.5685 36.997 38.5639 36.9792 38.5598 36.9619C39.0668 34.9427 38.5014 33.3296 38.5666 31.5557C38.5751 31.5208 38.5851 31.4846 38.592 31.4463ZM30.4973 36.2549C30.8312 36.2076 30.9897 36.4025 30.9953 36.7197C30.9863 36.4039 30.8303 36.2106 30.4973 36.2578C30.3877 36.2724 30.2923 36.3054 30.215 36.3574C30.2926 36.3046 30.3882 36.2706 30.4973 36.2549ZM35.1164 32.2481C35.0558 33.1857 35.6135 33.8383 36.4064 34.5244C36.4057 34.527 36.4052 34.5297 36.4045 34.5322C35.6032 33.8394 35.0355 33.1796 35.0939 32.2363C35.0929 32.2357 35.092 32.235 35.091 32.2344C35.0992 32.2388 35.1082 32.243 35.1164 32.2481ZM30.3781 30.125C31.6436 30.6313 33.2904 31.6513 33.5412 32.1611C33.6358 32.3535 33.7305 32.4643 33.8254 32.5195C33.7234 32.4686 33.6208 32.3572 33.5188 32.1504C33.2697 31.6455 31.6407 30.635 30.3781 30.125ZM16.4094 30.3311C16.9398 30.5846 16.8877 30.988 16.3147 31.7354C16.1672 31.9274 15.9723 32.0895 16.092 32.3232C16.1208 32.3797 16.156 32.4139 16.1945 32.4346C16.1469 32.4163 16.104 32.379 16.0695 32.3115C15.9503 32.078 16.1448 31.9165 16.2922 31.7246C16.8595 30.9895 16.9171 30.5859 16.4094 30.3311ZM17.8781 28.6523C18.543 28.5494 19.083 28.4304 19.7229 28.7168C19.7283 28.7192 19.734 28.7221 19.7395 28.7246C19.1022 28.4416 18.5634 28.5587 17.9006 28.6641C15.9501 28.9701 13.9661 29.0594 11.9377 29.2402C12.1101 29.7586 12.3921 30.0606 12.7395 30.2227C12.3825 30.0633 12.0924 29.7587 11.9152 29.2285C13.9436 29.0477 15.9277 28.9584 17.8781 28.6523ZM38.4582 26.8535C38.6035 26.9201 38.7445 27.0088 38.8781 27.1143C39.0839 27.2756 39.0926 27.5149 38.9758 27.7402C38.6447 28.3774 38.0571 28.511 37.4338 28.4053C36.1318 28.1884 34.8215 28.8307 33.6613 28.6807C31.6245 28.4191 29.7427 29.12 27.7727 29.0615C26.6571 29.028 25.5221 28.5056 24.4094 29.1758C24.1192 29.3519 23.7717 29.2442 23.4611 29.085C23.7654 29.2374 24.1013 29.3345 24.3869 29.165C25.4999 28.4945 26.6354 29.0174 27.7512 29.0508C29.7183 29.1091 31.6022 28.4084 33.6389 28.6699C34.7991 28.8201 36.1102 28.1765 37.4123 28.3936C38.0354 28.4964 38.6223 28.3656 38.9533 27.7285C39.07 27.5032 39.0615 27.2638 38.8557 27.1025C38.7289 27.0032 38.5956 26.9186 38.4582 26.8535ZM21.5295 29.04C22.1037 28.6285 22.5989 28.6598 23.1223 28.9082C22.6051 28.6697 22.1148 28.6474 21.551 29.0508C21.1632 29.3289 20.7731 29.2313 20.3986 29.0576L20.1545 28.9356C20.5955 29.1658 21.0642 29.3739 21.5295 29.04ZM5.96992 28.3076C6.17736 28.3839 6.44928 28.4306 6.79317 28.4414C7.05208 28.4495 7.27316 28.4823 7.45821 28.5391C7.27829 28.4869 7.06494 28.4564 6.81758 28.4492C6.46007 28.438 6.18019 28.3896 5.96992 28.3076ZM32.8391 24.5908C33.0239 24.6651 33.2131 24.8171 33.4191 25.0186C33.9513 25.5362 34.2118 26.3084 34.9143 26.6885C34.1934 26.3129 33.9345 25.5309 33.3967 25.0078C33.1988 24.8155 33.0168 24.668 32.8391 24.5908ZM18.3322 25.127C18.8385 25.1715 19.3696 25.2999 19.5061 25.8838C19.5784 26.1898 19.2921 26.3934 18.9973 26.4102H18.9943C19.292 26.3934 19.5755 26.1926 19.5031 25.8838C19.3667 25.3002 18.8363 25.1716 18.3303 25.127H18.3322ZM22.5109 25.1348C22.4975 25.1775 22.4809 25.2134 22.4533 25.2246L22.4719 25.2109C22.5116 25.1701 22.5232 25.0701 22.55 25.002L22.5109 25.1348ZM31.0158 24.3135C31.1345 24.3739 31.2269 24.4838 31.2678 24.6846C31.321 24.9477 31.3854 25.0947 31.466 25.1533C31.3759 25.1054 31.3041 24.9586 31.2453 24.6738C31.207 24.4853 31.124 24.3761 31.0158 24.3135ZM21.9553 23.3154C22.1685 23.6874 22.4064 23.9101 22.6604 24.0332C22.4025 23.9145 22.1622 23.6944 21.9455 23.3232C21.9487 23.3208 21.9522 23.3178 21.9553 23.3154ZM19.175 23.9043C18.9834 23.9397 18.7784 23.9532 18.5637 23.9697L18.218 24.0029C18.5575 23.9585 18.8806 23.9566 19.175 23.9043ZM18.3518 22.0049C18.6745 22.0243 19.0114 21.9779 19.3147 22.0586C19.5025 22.1079 19.6962 22.1678 19.8498 22.2744C19.6966 22.1691 19.5033 22.1096 19.3166 22.0606C19.0108 21.9801 18.6744 22.0272 18.3547 22.0078C17.442 21.9522 16.6683 22.3953 16.6516 23.2412C16.6456 23.5304 16.7205 23.6999 16.84 23.8018C16.7188 23.6999 16.6426 23.5298 16.6486 23.2383C16.6653 22.3952 17.4391 21.9492 18.3518 22.0049ZM34.2229 21.6602C36.5044 21.4209 38.533 19.9437 41.0344 20.5C41.5378 20.6112 42.1256 20.4088 42.5939 20.6709C42.1292 20.4267 41.5525 20.6202 41.0568 20.5107C38.5554 19.9571 36.5269 21.4326 34.2453 21.6719C33.4245 21.7581 32.6812 21.3539 31.802 21.6377C30.9784 21.902 30.0821 21.8918 29.4338 22.5957C29.3223 22.7151 29.0615 22.8456 28.9475 22.7959C27.3976 22.1031 25.6859 22.7508 24.1193 22.1943C23.1457 21.8496 22.3611 22.4978 21.5266 22.8262C21.418 22.8679 21.3259 23.1574 21.3537 23.3076C21.3769 23.4255 21.4201 23.4928 21.4729 23.5264C21.4093 23.5 21.3577 23.431 21.3313 23.2969C21.3007 23.1467 21.3957 22.8602 21.5041 22.8154C22.3389 22.4871 23.124 21.8386 24.0979 22.1836C25.6642 22.7398 27.3753 22.0915 28.925 22.7842C29.0391 22.8343 29.301 22.7064 29.4123 22.584C30.0634 21.8802 30.9569 21.8913 31.7805 21.627C32.6623 21.3434 33.405 21.7463 34.2229 21.6602ZM7.38106 22.4883C7.4767 22.5116 7.56233 22.5363 7.63887 22.5615C7.56629 22.5385 7.48564 22.5166 7.39668 22.4951C7.39113 22.4938 7.3864 22.4898 7.38106 22.4883ZM43.4563 17.2168C43.7873 17.3834 43.7892 18.0858 43.7277 18.3379C43.5051 19.2255 43.6945 20.2137 43.0295 21.1152C43.0249 21.1072 43.0195 21.0996 43.0148 21.0918C43.6699 20.1934 43.4819 19.211 43.7063 18.3272C43.7685 18.0822 43.7684 17.4022 43.4563 17.2168ZM16.4074 17.0459C16.5104 17.4692 17.388 17.1204 17.8732 17.29L17.9816 17.3418C17.5331 17.0623 16.5177 17.5034 16.4074 17.0459ZM26.552 16.9971C26.4162 17.1805 26.1397 17.2111 25.9064 17.1748C25.7824 17.154 25.651 17.1198 25.5373 17.0586L25.6564 17.1104C25.7385 17.1397 25.825 17.1587 25.9084 17.1719C26.1206 17.2049 26.3677 17.1825 26.5129 17.04L26.552 16.9971ZM23.9563 16.6455C23.9806 16.8635 23.7993 16.958 23.5822 16.9775C23.475 16.9858 23.3724 16.9818 23.2834 16.9551L23.2824 16.9541C23.3717 16.9805 23.4748 16.984 23.5822 16.9746C23.7984 16.9552 23.9788 16.8615 23.9563 16.6455ZM22.009 16.5498C21.9716 16.7951 21.7538 16.9283 21.4982 16.9551L21.6057 16.9365C21.8128 16.8858 21.977 16.7585 22.009 16.5498ZM27.5529 15.4111C27.8927 15.2511 28.2391 14.6818 28.59 14.8652C28.2468 14.7166 27.908 15.2652 27.5754 15.4219C27.072 15.6583 27.0553 16.1618 27.1887 16.6318C27.2306 16.7786 27.3021 16.8636 27.3898 16.9141C27.292 16.8656 27.2116 16.7799 27.1662 16.6211C27.0327 16.151 27.0526 15.6477 27.5529 15.4111ZM23.1086 16.1914C23.0389 16.296 23.0051 16.4333 22.9953 16.5791C23.0012 16.6259 23.0109 16.6679 23.0236 16.7051C23.0104 16.6678 22.999 16.626 22.9924 16.5791C23.0022 16.4331 23.037 16.2963 23.1076 16.1924L23.1086 16.1914ZM14.3273 16.6172C14.3891 16.6471 14.4431 16.6679 14.4973 16.668C14.3889 16.6705 14.28 16.5849 14.1105 16.5127L14.3273 16.6172ZM31.7775 13.71C31.7267 14.7623 30.7899 14.5761 30.3752 14.9736C29.9125 15.4188 29.6183 15.6085 29.26 15.4277C29.6088 15.5904 29.8993 15.3992 30.3527 14.9629C30.7701 14.5623 31.716 14.7568 31.758 13.6777C31.764 13.6889 31.7715 13.6991 31.7775 13.71ZM34.6457 10.8223C35.0714 11.0699 35.4838 11.4294 35.4504 12.0332C35.4196 12.5668 34.9885 12.517 34.6408 12.5947C34.5519 12.6142 34.4627 12.6479 34.382 12.6924C33.5974 13.1125 32.0498 13.2378 34.0695 14.7764C33.4108 14.6761 32.9052 14.6097 32.508 14.4141C32.9019 14.6014 33.4014 14.6672 34.048 14.7656C32.0279 13.2241 33.5749 13.1008 34.3596 12.6807C34.4402 12.6362 34.5294 12.6062 34.6184 12.584C34.9662 12.5061 35.3973 12.5557 35.4279 12.0215C35.4612 11.4208 35.0497 11.0591 34.6242 10.8115C34.6078 10.802 34.5907 10.7942 34.5754 10.7861C34.5974 10.7971 34.6213 10.8081 34.6457 10.8223ZM33.3107 11.1397C33.4524 11.1974 33.533 11.4524 33.6643 11.5361C33.5218 11.4689 33.4412 11.194 33.2932 11.1309C33.2991 11.1334 33.3048 11.1373 33.3107 11.1397ZM16.1291 9.82813C16.0704 10.2594 16.2959 10.5396 16.635 10.8086C17.2275 11.2787 17.8117 11.6821 18.635 11.1816C19.35 10.7476 20.1682 10.5751 21.0168 10.6084C21.4576 10.6265 22.158 11.1439 22.2932 10.5557V10.5586C22.158 11.1466 21.4576 10.6294 21.0168 10.6113C20.1683 10.5752 19.3472 10.7506 18.635 11.1846C17.8117 11.6849 17.2274 11.2816 16.635 10.8115C16.2959 10.5425 16.0686 10.2641 16.1281 9.83204L16.1291 9.82813ZM32.0285 10.0068C32.4619 10.1928 32.8115 10.8701 33.2316 11.1016C32.824 10.8943 32.4849 10.2612 32.0773 10.0322L32.0285 10.0068ZM34.6662 4.51661C34.8087 4.57927 34.9622 4.69466 35.0471 4.82618C35.2138 5.08761 35.2299 5.3989 34.9992 5.59083C34.2842 6.18622 34.4291 6.66774 35.0022 7.30762C35.4028 7.75555 35.2498 8.23171 34.5627 8.44044C33.6836 8.70473 32.8597 9.16401 31.8889 8.72755C31.5745 8.58567 31.1179 8.56292 30.7951 8.67969C29.0673 9.3113 27.3476 9.08574 25.6086 8.76856C25.0522 8.66563 24.7404 9.09703 24.6818 9.58106C24.6438 9.90628 24.8051 10.1587 25.0285 10.2676C24.7938 10.1654 24.6201 9.90778 24.6594 9.57032C24.7178 9.08616 25.0296 8.65487 25.5861 8.75782C27.3252 9.0778 29.0448 9.30052 30.7727 8.66895C31.0926 8.55209 31.552 8.5767 31.8664 8.71583C32.8375 9.15263 33.6638 8.69403 34.5402 8.42969C35.2303 8.221 35.3832 7.74487 34.9797 7.29688C34.4066 6.65703 34.2619 6.17543 34.9768 5.58008C35.2077 5.38809 35.1916 5.07602 35.0246 4.81446C34.9442 4.68995 34.802 4.58105 34.6662 4.51661ZM23.6838 9.52735C23.5665 9.90953 22.9584 9.6711 22.6281 9.78419C22.5039 9.82558 22.2855 9.91102 22.2873 9.95313L22.2863 9.95118C22.2816 9.91212 22.5032 9.82569 22.6281 9.78126C22.9582 9.6683 23.5659 9.9065 23.6838 9.5254V9.52735ZM14.1496 9.22266C14.1249 9.27211 14.1043 9.32652 14.1057 9.38087C14.1077 9.53502 14.186 9.63726 14.3059 9.63477C14.1863 9.63798 14.1069 9.53554 14.1027 9.38087C14.1028 9.27248 14.1864 9.16426 14.217 9.09473L14.1496 9.22266ZM14.2971 9.07423C14.4043 9.05794 14.4688 9.09729 14.5041 9.15723C14.4675 9.09822 14.4023 9.05871 14.2971 9.07423ZM17.4973 7.1963C17.425 7.30234 17.42 7.45027 17.4113 7.59473C17.4357 7.69564 17.4526 7.81182 17.51 7.8877C17.4509 7.81178 17.433 7.69499 17.4084 7.5918C17.4188 7.4207 17.4263 7.24366 17.549 7.13868L17.4973 7.1963ZM32.8293 6.74024C32.8241 6.84083 32.7452 6.90912 32.633 6.92774L32.5617 6.93262C32.7099 6.93471 32.8224 6.85988 32.8293 6.74024ZM30.6809 6.58399L30.6779 6.58497C30.6546 6.53045 30.6331 6.47542 30.6105 6.42091C30.6342 6.47591 30.6572 6.53078 30.6809 6.58399ZM30.8127 6.25196C30.7333 6.28484 30.6562 6.31697 30.5822 6.35255L30.5803 6.35059C30.6582 6.31721 30.7366 6.28436 30.8117 6.25098L30.8127 6.25196ZM32.8566 4.24219C33.1042 4.3593 33.306 4.74574 33.5529 4.90919C33.3035 4.7595 33.1012 4.37478 32.8566 4.24219ZM29.9387 0.680671C30.135 0.780679 30.1578 0.989254 29.9299 1.43458C29.4569 2.36205 29.5935 3.05947 30.2463 3.4043C29.5745 3.06359 29.429 2.36078 29.9074 1.42286C30.1259 0.994383 30.1131 0.784982 29.9387 0.680671ZM27.6369 2.54395C28.0009 2.60461 28.5653 2.36126 28.8781 2.50196C28.561 2.38402 28.0166 2.61543 27.6623 2.5586C27.1225 2.46956 26.5539 2.56645 26.0002 2.53028C25.751 2.51274 25.4564 2.59914 25.2551 2.49415C25.4555 2.57972 25.7368 2.49965 25.9758 2.51661C26.5267 2.55554 27.0972 2.45492 27.6369 2.54395ZM23.0256 1.29102C23.2305 1.39932 23.5182 1.37854 23.7639 1.42579C24.0701 1.48447 24.5636 1.29282 24.8225 1.4336C24.5576 1.31752 24.0846 1.49644 23.7883 1.43946C23.5325 1.39034 23.2315 1.41534 23.0256 1.29102Z" fill="#89D5FF"/>
<path d="M28.2072 302.145C28.2092 302.143 28.2111 302.141 28.2131 302.139V302.136L28.2072 302.145Z" fill="#89D5FF"/>
<path d="M44.9074 195.899C44.3483 197.266 44.7911 198.693 44.6604 200.087C45.0026 199.889 45.314 199.611 45.1555 199.202C44.7381 198.117 45.0576 196.993 44.9074 195.899Z" fill="#89D5FF"/>
<path d="M24.3342 121.052C23.4802 121.213 23.6965 122.02 23.5715 122.51C22.5253 126.617 22.1604 130.819 21.7736 135.031C21.5761 137.196 21.5204 139.383 21.1643 141.534C21.0947 141.952 21.1342 142.152 21.5627 142.196C22.1635 141.053 21.8881 139.773 22.0383 138.571C22.5169 134.762 22.6699 130.91 23.1096 127.093C23.3461 125.059 23.9168 123.063 24.3342 121.052Z" fill="#89D5FF"/>
<path d="M47.1174 81.2676C46.1018 82.5086 46.5778 83.8414 46.8811 85.1631C47.3345 83.8887 47.1285 82.5725 47.1174 81.2676Z" fill="#89D5FF"/>
<path d="M50.76 71.8154C50.3175 72.2328 50.5233 72.773 50.4982 73.2627C50.3592 76.0756 50.7597 78.9025 50.2395 81.707C50.1588 82.1355 49.9721 82.7814 50.7453 82.9346L51.0129 80.4131V72.3828L51.0109 72.2129C50.9945 72.05 50.9286 71.9093 50.76 71.8154Z" fill="#89D5FF"/>
<path d="M46.8645 57.3467C46.411 57.9171 46.948 58.3592 47.0871 58.835C47.3737 59.8282 48.03 60.6991 48.0051 61.8008C47.9912 62.3517 48.3333 62.6191 48.8898 62.5996C48.3807 60.7856 47.9939 58.9243 46.8645 57.3467Z" fill="#89D5FF"/>
<path d="M12.049 5.55469C12.0509 5.55464 12.0529 5.55472 12.0549 5.55469V5.55274C12.0525 5.55274 12.0496 5.55415 12.049 5.55469Z" fill="#89D5FF"/>
<path d="M20.3333 80C20.3333 81.4728 21.5272 82.6667 23 82.6667C24.4728 82.6667 25.6667 81.4728 25.6667 80C25.6667 78.5272 24.4728 77.3333 23 77.3333C21.5272 77.3333 20.3333 78.5272 20.3333 80ZM44.3333 80C44.3333 81.4728 45.5272 82.6667 47 82.6667C48.4728 82.6667 49.6667 81.4728 49.6667 80C49.6667 78.5272 48.4728 77.3333 47 77.3333C45.5272 77.3333 44.3333 78.5272 44.3333 80ZM23 80V80.5H47V80V79.5H23V80Z" fill="#078AD2"/>
<path d="M23.4242 125.31C23.043 126.732 23.8872 128.195 25.3098 128.576C26.7324 128.957 28.1946 128.113 28.5758 126.69C28.957 125.268 28.1128 123.805 26.6902 123.424C25.2676 123.043 23.8054 123.887 23.4242 125.31ZM40.1404 129.789C39.7592 131.211 40.6035 132.674 42.026 133.055C43.4486 133.436 44.9108 132.592 45.292 131.169C45.6732 129.747 44.829 128.284 43.4064 127.903C41.9838 127.522 40.5216 128.366 40.1404 129.789ZM26 126L25.8706 126.483L42.5868 130.962L42.7162 130.479L42.8456 129.996L26.1294 125.517L26 126Z" fill="#0729D2"/>
<path d="M7.33333 175C7.33333 176.473 8.52724 177.667 10 177.667C11.4728 177.667 12.6667 176.473 12.6667 175C12.6667 173.527 11.4728 172.333 10 172.333C8.52724 172.333 7.33333 173.527 7.33333 175ZM43.3333 175C43.3333 176.473 44.5272 177.667 46 177.667C47.4728 177.667 48.6667 176.473 48.6667 175C48.6667 173.527 47.4728 172.333 46 172.333C44.5272 172.333 43.3333 173.527 43.3333 175ZM10 175V175.5H46V175V174.5H10V175Z" fill="#D32F2F"/>
<path d="M23.3333 253C23.3333 254.473 24.5272 255.667 26 255.667C27.4728 255.667 28.6667 254.473 28.6667 253C28.6667 251.527 27.4728 250.333 26 250.333C24.5272 250.333 23.3333 251.527 23.3333 253ZM49.3333 253C49.3333 254.473 50.5272 255.667 52 255.667C53.4728 255.667 54.6667 254.473 54.6667 253C54.6667 251.527 53.4728 250.333 52 250.333C50.5272 250.333 49.3333 251.527 49.3333 253ZM26 253V253.5H52V253V252.5H26V253Z" fill="#D38F2F"/>
</g>
<defs>
<clipPath id="clip0_4_7156">
<rect width="116.726" height="320" fill="white" transform="translate(0.35376)"/>
</clipPath>
</defs>
</svg>
