<svg xmlns="http://www.w3.org/2000/svg" width="24" height="24" fill="currentColor" viewBox="0 0 24 24">
  <path d="M12 1.25c5.937 0 10.75 4.813 10.75 10.75S17.937 22.75 12 22.75 1.25 17.937 1.25 12 6.063 1.25 12 1.25Zm2.785 14.596A4.727 4.727 0 0 1 12 16.75a4.727 4.727 0 0 1-2.786-.904l-3.202 3.202A9.211 9.211 0 0 0 12 21.25a9.21 9.21 0 0 0 5.987-2.202l-3.202-3.202Zm4.105-9.677-3.044 3.045c.568.783.904 1.745.904 2.786 0 1.04-.337 2.002-.904 2.785l3.202 3.202A9.21 9.21 0 0 0 21.25 12c0-2.285-.83-4.374-2.202-5.988l-.158.157ZM4.95 6.012A9.212 9.212 0 0 0 2.75 12c0 2.284.83 4.374 2.201 5.987l3.202-3.202A4.728 4.728 0 0 1 7.25 12c0-1.041.335-2.003.903-2.786L4.951 6.012ZM12 8.75a3.25 3.25 0 1 0 0 6.5 3.25 3.25 0 0 0 0-6.5Zm0-6a9.212 9.212 0 0 0-5.988 2.201l3.202 3.202A4.728 4.728 0 0 1 12 7.25c1.04 0 2.002.336 2.785.903l3.202-3.202A9.211 9.211 0 0 0 12 2.75Z"/>
</svg>
