<svg xmlns="http://www.w3.org/2000/svg" width="24" height="24" fill="currentColor" viewBox="0 0 24 24">
  <path d="M16.5 2.25a6.25 6.25 0 0 1 6.25 6.25c0 2.63-1.736 4.578-3.225 6.036L12.53 21.53a.75.75 0 0 1-1.06 0l-6.991-6.99-.57-.57C2.57 12.589 1.25 10.81 1.25 8.5A6.25 6.25 0 0 1 7.5 2.25c.955 0 1.813.136 2.648.5.643.28 1.244.684 1.852 1.22.608-.536 1.21-.94 1.852-1.22.835-.364 1.693-.5 2.648-.5Zm0 1.5c-.805 0-1.447.114-2.048.375-.605.264-1.214.698-1.922 1.405a.75.75 0 0 1-1.06 0c-.708-.707-1.317-1.141-1.922-1.405-.6-.261-1.243-.375-2.048-.375A4.75 4.75 0 0 0 2.75 8.5c0 1.715.976 3.12 2.223 4.413L12 19.94l6.47-6.47.005-.005.547-.553c1.245-1.303 2.228-2.705 2.228-4.411a4.75 4.75 0 0 0-4.75-4.75Z"/>
</svg>
