<svg xmlns="http://www.w3.org/2000/svg" width="24" height="24" fill="currentColor" viewBox="0 0 24 24">
  <path d="M12.235 14.256A4.75 4.75 0 0 1 16.75 19v2a.75.75 0 0 1-1.5 0v-2a3.25 3.25 0 0 0-3.089-3.246L12 15.75H6A3.25 3.25 0 0 0 2.75 19v2a.75.75 0 0 1-1.5 0v-2A4.75 4.75 0 0 1 6 14.25h6l.235.006Zm6.877.133.076.015.189.053a4.75 4.75 0 0 1 3.373 4.542V21a.75.75 0 0 1-1.5 0v-1.999l-.012-.27a3.25 3.25 0 0 0-2.168-2.796l-.258-.079-.073-.023a.75.75 0 0 1 .373-1.444ZM9 2.25a4.75 4.75 0 1 1 0 9.5 4.75 4.75 0 0 1 0-9.5Zm7.113.137.076.015.189.053a4.75 4.75 0 0 1-.19 9.143.75.75 0 0 1-.376-1.452 3.252 3.252 0 0 0 1.754-5.135 3.25 3.25 0 0 0-1.497-1.078l-.33-.102a.75.75 0 0 1 .374-1.444ZM9 3.75a3.25 3.25 0 1 0 0 6.5 3.25 3.25 0 0 0 0-6.5Z"/>
</svg>
