<svg xmlns="http://www.w3.org/2000/svg" fill="currentColor" viewBox="0 0 24 24">
  <path fill-rule="evenodd" d="M16.145 11.25H20c.966 0 1.75.784 1.75 1.75v5A1.75 1.75 0 0 1 20 19.75H4A1.75 1.75 0 0 1 2.25 18v-5c0-.966.784-1.75 1.75-1.75h3.855a.756.756 0 0 1 .29 0h3.71a.756.756 0 0 1 .29 0h3.71a.756.756 0 0 1 .29 0ZM4 12.75a.25.25 0 0 0-.25.25v5c0 .138.112.25.25.25h16a.25.25 0 0 0 .25-.25v-5a.25.25 0 0 0-.25-.25h-3.25V15a.75.75 0 0 1-1.5 0v-2.25h-2.5V15a.75.75 0 0 1-1.5 0v-2.25h-2.5V15a.75.75 0 0 1-1.5 0v-2.25H4Z" clip-rule="evenodd"/>
  <path d="M20 3.25a.75.75 0 0 1 .75.75v4a.75.75 0 0 1-1.5 0V6.75H4.75V8a.75.75 0 0 1-1.5 0V4a.75.75 0 0 1 1.5 0v1.25h14.5V4a.75.75 0 0 1 .75-.75Z"/>
</svg>
