<svg xmlns="http://www.w3.org/2000/svg" width="24" height="24" fill="currentColor" viewBox="0 0 24 24">
  <path fill-rule="evenodd" d="M16 1.25a.75.75 0 0 1 .75.75v1.25H19A2.75 2.75 0 0 1 21.75 6v14A2.75 2.75 0 0 1 19 22.75H5A2.75 2.75 0 0 1 2.25 20V6A2.75 2.75 0 0 1 5 3.25h2.25V2a.75.75 0 0 1 1.5 0v1.25h6.5V2a.75.75 0 0 1 .75-.75ZM3.75 20c0 .69.56 1.25 1.25 1.25h14c.69 0 1.25-.56 1.25-1.25v-9.25H3.75V20ZM5 4.75c-.69 0-1.25.56-1.25 1.25v3.25h16.5V6c0-.69-.56-1.25-1.25-1.25h-2.25V6a.75.75 0 0 1-1.5 0V4.75h-6.5V6a.75.75 0 0 1-1.5 0V4.75H5Z" clip-rule="evenodd"/>
</svg>
