<svg xmlns="http://www.w3.org/2000/svg" fill="currentColor" viewBox="0 0 24 24">
  <path d="M12 15.25a.75.75 0 0 1 .75.75v2a.75.75 0 1 1-1.5 0v-1.297a.748.748 0 0 1 .25-1.453h.5Z"/>
  <path fill-rule="evenodd" d="M18.16 1.255c.332.02.66.1.964.237a.754.754 0 0 1 .142.065l.021.015c.31.165.587.385.813.653l.1.125 1.597 2.137a2.755 2.755 0 0 1 .193 3.026l-.002.003-4.499 7.77a5.75 5.75 0 1 1-10.98 0L2.01 7.516a2.751 2.751 0 0 1 .18-3.026L3.8 2.348a2.75 2.75 0 0 1 .911-.777l.023-.015a.755.755 0 0 1 .14-.065A2.75 2.75 0 0 1 6 1.25h12l.16.005ZM12 12.75a4.25 4.25 0 1 0 0 8.502 4.25 4.25 0 0 0 0-8.502ZM3.388 5.389a1.251 1.251 0 0 0-.08 1.376l4 6.91a5.768 5.768 0 0 1 2.601-2.032L4.93 3.342 3.389 5.389Zm10.699 6.254a5.766 5.766 0 0 1 2.602 2.032l3.999-6.907a1.253 1.253 0 0 0-.087-1.375l-.003-.004-1.53-2.047-4.981 8.3Zm-2.648-.367a5.813 5.813 0 0 1 1.119 0l2.116-3.526h-5.35l2.115 3.526ZM8.424 6.25h7.151l2.1-3.5H6.325l2.099 3.5Z" clip-rule="evenodd"/>
</svg>
