<svg xmlns="http://www.w3.org/2000/svg" fill="currentColor" viewBox="0 0 24 24">
  <path d="M2.25 17V9A1.75 1.75 0 0 1 4 7.25h14l.235.006a4.75 4.75 0 0 1 0 9.488L18 16.75h-.25V17A4.75 4.75 0 0 1 13 21.75H7A4.75 4.75 0 0 1 2.25 17Zm3-13V2a.75.75 0 0 1 1.5 0v2a.75.75 0 0 1-1.5 0Zm4 0V2a.75.75 0 0 1 1.5 0v2a.75.75 0 0 1-1.5 0Zm4 0V2a.75.75 0 0 1 1.5 0v2a.75.75 0 0 1-1.5 0Zm-9.5 13A3.25 3.25 0 0 0 7 20.25h6A3.25 3.25 0 0 0 16.25 17V9a.25.25 0 0 0-.201-.245L16 8.75H4a.25.25 0 0 0-.25.25v8Zm14-1.75H18l.161-.004a3.25 3.25 0 0 0 0-6.492L18 8.75h-.27c.011.082.02.166.02.25v6.25Z"/>
</svg>
