<svg xmlns="http://www.w3.org/2000/svg" fill="currentColor" viewBox="0 0 24 24">
  <path d="M8.55 11.4a.75.75 0 0 1 .785-.07l6 3 .114.07a.75.75 0 0 1 .297.675l-.025.131v.003l-.003.007-.008.03c-.008.026-.02.064-.033.113l-.12.42c-.1.353-.242.841-.397 1.38a343.71 343.71 0 0 1-.922 3.156.76.76 0 0 1-.027.077l-.036.073a2.49 2.49 0 0 1-2.009 1.272l-.166.006a2.49 2.49 0 0 1-2.09-1.136l-.085-.142a.745.745 0 0 1-.05-.111l-.033-.12-1.48-8.1a.75.75 0 0 1 .288-.734Zm2.641 8.422a.988.988 0 0 0 .809.421l.132-.009a.987.987 0 0 0 .697-.445c.239-.8.593-2.013.89-3.047.152-.524.288-1 .388-1.35l-4.1-2.05 1.184 6.48Z"/>
  <path d="M11.25 12v-2a3.25 3.25 0 0 0-3.089-3.246L8 6.75c-1.075 0-2.128.636-2.944 1.678a6.276 6.276 0 0 0-1.244 2.822H7a.75.75 0 0 1 0 1.5H3a.75.75 0 0 1-.75-.75c0-1.567.629-3.227 1.625-4.498C4.869 6.234 6.315 5.25 8 5.25l.235.006A4.75 4.75 0 0 1 12.75 10v2a.75.75 0 0 1-1.5 0Z"/>
  <path d="M11.25 12v-2A4.75 4.75 0 0 1 16 5.25c1.685 0 3.131.984 4.125 2.252.996 1.271 1.625 2.931 1.625 4.498a.75.75 0 0 1-.75.75h-4a.75.75 0 0 1 0-1.5h3.189a6.277 6.277 0 0 0-1.245-2.822C18.128 7.386 17.075 6.75 16 6.75A3.25 3.25 0 0 0 12.75 10v2a.75.75 0 0 1-1.5 0Z"/>
</svg>
