<svg xmlns="http://www.w3.org/2000/svg" fill="currentColor" viewBox="0 0 24 24">
  <path d="M5.854 2.257c.985-.03 2.084.202 3.22.631.94.356 1.926.857 2.926 1.484 1-.627 1.986-1.128 2.925-1.484 1.136-.43 2.236-.661 3.221-.63.99.03 1.905.33 2.583 1.01l.123.13c.595.663.862 1.528.89 2.456.032.985-.2 2.084-.63 3.22-.356.94-.857 1.926-1.484 2.926.627 1 1.128 1.986 1.484 2.925.43 1.136.662 2.236.63 3.221-.03.989-.332 1.904-1.01 2.582v.001c-.678.681-1.596.983-2.586 1.014-.985.03-2.085-.201-3.22-.631-.94-.356-1.927-.857-2.926-1.484-1 .627-1.987 1.128-2.926 1.484-1.136.43-2.235.662-3.22.63-.99-.03-1.908-.332-2.586-1.013-.679-.679-.98-1.594-1.01-2.583-.031-.985.2-2.085.63-3.22.356-.94.857-1.927 1.484-2.926-.627-1-1.128-1.987-1.484-2.926-.43-1.136-.661-2.235-.63-3.22.03-.99.332-1.908 1.013-2.586.678-.68 1.594-.98 2.583-1.01Zm-.553 11.105a14.428 14.428 0 0 0-1.01 2.095c-.385 1.017-.557 1.915-.535 2.642.02.632.185 1.102.453 1.435l.12.135.003.002.134.12c.334.268.803.433 1.435.453.727.023 1.625-.15 2.643-.535a14.43 14.43 0 0 0 2.092-1.011 25.403 25.403 0 0 1-2.426-2.04l-.439-.427-.003-.002a25.673 25.673 0 0 1-2.467-2.867Zm13.397 0a25.689 25.689 0 0 1-2.467 2.867l-.002.002a25.689 25.689 0 0 1-2.867 2.467c.724.418 1.427.758 2.095 1.01 1.017.386 1.915.559 2.642.536.722-.023 1.233-.235 1.57-.573l.002-.002.12-.135c.268-.333.433-.803.453-1.435.023-.727-.15-1.625-.535-2.642a14.432 14.432 0 0 0-1.011-2.095ZM12 6.17A23.81 23.81 0 0 0 6.17 12a23.796 23.796 0 0 0 2.662 3.17H8.83A23.798 23.798 0 0 0 12 17.83 23.803 23.803 0 0 0 17.83 12a23.798 23.798 0 0 0-2.66-3.17v.002A23.796 23.796 0 0 0 12 6.17Zm.25 5.83a.25.25 0 1 0-.501 0 .25.25 0 0 0 .5 0ZM5.9 3.756c-.722.023-1.232.234-1.57.573l-.002.003c-.339.337-.55.847-.573 1.569-.022.727.15 1.625.536 2.643.252.666.59 1.37 1.008 2.093a25.688 25.688 0 0 1 2.468-2.866l.003-.003.439-.427a25.407 25.407 0 0 1 2.427-2.04 14.424 14.424 0 0 0-2.093-1.01c-1.018-.384-1.916-.557-2.643-.535Zm12.198 0c-.727-.022-1.625.15-2.642.536-.667.252-1.372.591-2.095 1.01a25.393 25.393 0 0 1 2.429 2.04l.438.426.002.003.428.439a25.403 25.403 0 0 1 2.039 2.426 14.43 14.43 0 0 0 1.01-2.092c.386-1.018.559-1.916.536-2.643-.023-.722-.235-1.232-.573-1.57l-.002-.002c-.337-.339-.848-.55-1.57-.573ZM13.75 12a1.75 1.75 0 1 1-3.5 0 1.75 1.75 0 0 1 3.5 0Z"/>
</svg>