<svg xmlns="http://www.w3.org/2000/svg" fill="currentColor" viewBox="0 0 24 24">
  <path d="M7.7 2.142a.75.75 0 0 1 .6 1.375 9.252 9.252 0 0 0-2.803 15.056 9.25 9.25 0 0 0 15.022-2.975.751.751 0 0 1 1.382.584A10.75 10.75 0 1 1 7.7 2.142Zm5.372-.838.46.057a10.75 10.75 0 0 1 9.164 9.566l.009.193c-.012.943-.82 1.629-1.705 1.629l-8 .003a1.75 1.75 0 0 1-1.75-1.75V3c0-.943.78-1.8 1.823-1.697Zm-.323 9.697a.25.25 0 0 0 .25.25l8-.001.052-.005a.22.22 0 0 0 .114-.06.142.142 0 0 0 .033-.052l.006-.056a9.25 9.25 0 0 0-7.885-8.232l-.397-.048a.128.128 0 0 0-.108.04.228.228 0 0 0-.065.164v8Z"/>
</svg>
