<svg xmlns="http://www.w3.org/2000/svg" width="120" height="120" fill="none" viewBox="0 0 24 24">
  <path fill="#32395F" fill-rule="evenodd" d="M19.57 19.917c0 1.15-.933 2.083-2.084 2.083H6.653a2.083 2.083 0 0 1-2.084-2.083V18.11h-.277a.694.694 0 0 1-.695-.694v-4.861c0-.384.311-.695.695-.695h.277V4.083A2.084 2.084 0 0 1 6.653 2h7.917l5 5.07v4.791h.138c.384 0 .695.311.695.695v4.86a.695.695 0 0 1-.695.695h-.138v1.806ZM14.292 2.556h-7.64c-.843 0-1.527.684-1.527 1.527v7.778h13.889V7.347h-2.361a2.361 2.361 0 0 1-2.361-2.36V2.555Zm-9.167 17.36c0 .844.684 1.528 1.528 1.528h10.833c.844 0 1.528-.684 1.528-1.527V18.11H5.125v1.806Zm13.39-13.124-3.668-3.72v1.914c0 .997.809 1.806 1.806 1.806h1.862ZM7.273 13.364V17h.659v-1.545h1.511v-.552H7.932v-.987h1.67v-.552H7.274ZM10.862 17v-3.636h-.66V17h.66Zm.713-3.636V17h2.26v-.552h-1.601v-3.084h-.659Zm2.832 0V17h2.38v-.552h-1.721v-.993h1.584v-.552h-1.584v-.987h1.706v-.552h-2.365Z" clip-rule="evenodd"/>
</svg>
