<svg xmlns="http://www.w3.org/2000/svg" width="120" height="120" fill="none" viewBox="0 0 24 24">
  <path fill="#2597BB" d="M12.963 15.182c0-.276-.043-.509-.13-.698a.96.96 0 0 0-.354-.431.94.94 0 0 0-.524-.148.94.94 0 0 0-.524.148.97.97 0 0 0-.357.431c-.085.19-.128.422-.128.698 0 .276.043.509.128.7a.97.97 0 0 0 .357.43.95.95 0 0 0 .524.146.95.95 0 0 0 .524-.145.973.973 0 0 0 .355-.432c.086-.19.13-.423.13-.7ZM7.412 16.43h.541c.254 0 .465-.046.634-.139a.886.886 0 0 0 .382-.417 1.67 1.67 0 0 0 .128-.696c0-.278-.043-.509-.128-.692a.871.871 0 0 0-.378-.414 1.256 1.256 0 0 0-.618-.138h-.561v2.496Z"/>
  <path fill="#2597BB" fill-rule="evenodd" d="M19.57 19.917c0 1.15-.933 2.083-2.084 2.083H6.653a2.083 2.083 0 0 1-2.084-2.083V18.11h-.277a.694.694 0 0 1-.695-.694v-4.861c0-.384.311-.695.695-.695h.277V4.083A2.084 2.084 0 0 1 6.653 2h7.916l5 5.07v4.791h.14c.383 0 .694.311.694.695v4.86a.695.695 0 0 1-.695.695h-.139v1.806ZM14.291 2.556h-7.64c-.843 0-1.527.684-1.527 1.527v7.778h13.889V7.347h-2.361a2.361 2.361 0 0 1-2.361-2.36V2.555Zm-9.167 17.36c0 .844.684 1.528 1.528 1.528h10.833c.844 0 1.528-.684 1.528-1.527V18.11H5.125v1.806Zm13.39-13.124-3.668-3.72v1.914c0 .997.809 1.806 1.806 1.806h1.862Zm-4.89 8.39c0 .392-.073.727-.22 1.007a1.56 1.56 0 0 1-.596.639 1.65 1.65 0 0 1-.854.222 1.66 1.66 0 0 1-.856-.222 1.587 1.587 0 0 1-.597-.641c-.145-.28-.218-.615-.218-1.005 0-.392.073-.727.218-1.005a1.57 1.57 0 0 1 .597-.641c.252-.148.537-.222.856-.222a1.565 1.565 0 0 1 1.45.862c.147.279.22.614.22 1.006ZM7.986 17H6.753v-3.636H8.01c.361 0 .671.072.93.218.261.144.461.352.6.623.14.271.21.596.21.973 0 .38-.07.705-.211.977a1.46 1.46 0 0 1-.605.627c-.263.145-.58.218-.949.218Zm8.712-2.41h.664a1.496 1.496 0 0 0-.174-.54 1.333 1.333 0 0 0-.336-.4 1.449 1.449 0 0 0-.465-.25 1.81 1.81 0 0 0-.565-.086 1.56 1.56 0 0 0-1.447.863c-.145.278-.218.613-.218 1.005 0 .39.072.725.217 1.005.144.28.342.493.593.64.25.149.536.223.855.223.217 0 .414-.032.592-.096a1.434 1.434 0 0 0 .787-.671c.082-.152.136-.314.16-.487l-.663-.003a.79.79 0 0 1-.561.623 1.058 1.058 0 0 1-.306.043.964.964 0 0 1-.524-.144.983.983 0 0 1-.358-.43 1.699 1.699 0 0 1-.13-.703c0-.274.043-.505.13-.694a.979.979 0 0 1 .358-.434.938.938 0 0 1 .526-.149c.111 0 .215.016.31.046a.792.792 0 0 1 .45.35.84.84 0 0 1 .105.29Z" clip-rule="evenodd"/>
  <path fill="#2597BB" fill-rule="evenodd" d="M12.963 15.182c0-.276-.043-.509-.13-.698a.96.96 0 0 0-.354-.431.94.94 0 0 0-.524-.148.94.94 0 0 0-.524.148.97.97 0 0 0-.357.431c-.085.19-.128.422-.128.698 0 .276.043.509.128.7a.97.97 0 0 0 .357.43.95.95 0 0 0 .524.146.95.95 0 0 0 .524-.145.973.973 0 0 0 .355-.432c.086-.19.13-.423.13-.7Zm-5.01 1.248h-.541v-2.496h.561c.246 0 .452.046.618.138a.871.871 0 0 1 .378.414c.085.183.128.414.128.692 0 .278-.043.51-.128.696a.886.886 0 0 1-.382.417 1.31 1.31 0 0 1-.634.139Z" clip-rule="evenodd"/>
</svg>
