<svg xmlns="http://www.w3.org/2000/svg" width="120" height="120" fill="none" viewBox="0 0 24 24">
  <path fill="#FF2116" fill-rule="evenodd" d="M19.57 19.917c0 1.15-.933 2.083-2.084 2.083H6.653a2.083 2.083 0 0 1-2.084-2.083V18.11h-.277a.694.694 0 0 1-.695-.694v-4.861c0-.384.311-.695.695-.695h.277V4.083A2.084 2.084 0 0 1 6.653 2h7.916l5 5.07v4.791h.14c.383 0 .694.311.694.695v4.86a.695.695 0 0 1-.695.695h-.139v1.806ZM14.291 2.556h-7.64c-.843 0-1.527.684-1.527 1.527v7.778h13.889V7.347h-2.361a2.361 2.361 0 0 1-2.361-2.36V2.555Zm-9.167 17.36c0 .844.684 1.528 1.528 1.528h10.833c.844 0 1.528-.684 1.528-1.527V18.11H5.125v1.806Zm13.39-13.124-3.668-3.72v1.914c0 .997.809 1.806 1.806 1.806h1.862ZM7.473 17v-3.636h1.364c.28 0 .514.052.703.156.19.104.335.247.432.43.098.18.147.387.147.618 0 .233-.05.44-.147.62a1.053 1.053 0 0 1-.435.429 1.482 1.482 0 0 1-.709.154h-.696V17h-.659Zm4.45 0h-1.232v-3.636h1.257c.361 0 .671.072.93.218.261.144.461.352.6.623.14.271.21.596.21.973 0 .38-.07.705-.211.977a1.46 1.46 0 0 1-.605.627c-.263.145-.58.218-.949.218Zm2.391-3.636V17h.659v-1.545h1.511v-.552h-1.511v-.987h1.67v-.552h-2.329Z" clip-rule="evenodd"/>
  <path fill="#FF2116" d="M11.891 16.43h-.541v-2.496h.561c.246 0 .452.046.618.138a.872.872 0 0 1 .378.414c.085.183.128.414.128.692 0 .278-.043.51-.128.696a.886.886 0 0 1-.382.417 1.31 1.31 0 0 1-.634.139Zm-3.759-1.2h.607a.834.834 0 0 0 .402-.085.538.538 0 0 0 .23-.235.74.74 0 0 0 .077-.342.73.73 0 0 0-.077-.341.519.519 0 0 0-.232-.23.853.853 0 0 0-.403-.083h-.604v1.316Z"/>
</svg>
