<svg xmlns="http://www.w3.org/2000/svg" width="120" height="120" fill="none" viewBox="0 0 24 24">
  <path fill="#26A65B" fill-rule="evenodd" d="M19.57 19.917c0 1.15-.933 2.083-2.084 2.083H6.653a2.083 2.083 0 0 1-2.084-2.083V18.11h-.277a.694.694 0 0 1-.695-.694v-4.861c0-.384.311-.695.695-.695h.277V4.083A2.084 2.084 0 0 1 6.653 2h7.917l5 5.07v4.791h.138c.384 0 .695.311.695.695v4.86a.695.695 0 0 1-.695.695h-.138v1.806ZM14.292 2.556h-7.64c-.843 0-1.527.684-1.527 1.527v7.778h13.889V7.347h-2.361a2.361 2.361 0 0 1-2.361-2.36V2.555Zm-9.167 17.36c0 .844.684 1.528 1.528 1.528h10.833c.844 0 1.528-.684 1.528-1.527V18.11H5.125v1.806Zm13.39-13.124-3.668-3.72v1.914c0 .997.809 1.806 1.806 1.806h1.862Zm-2.871 7.21a.484.484 0 0 1 .21.361h.633a.946.946 0 0 0-.172-.543 1.105 1.105 0 0 0-.46-.371 1.598 1.598 0 0 0-.678-.135 1.66 1.66 0 0 0-.684.135c-.2.089-.36.213-.477.374a.938.938 0 0 0-.174.563c0 .26.086.47.26.627.173.156.41.273.71.35l.413.107c.13.033.244.07.34.113a.611.611 0 0 1 .23.156.35.35 0 0 1 .083.235.438.438 0 0 1-.094.273.611.611 0 0 1-.255.181 1.02 1.02 0 0 1-.377.064 1.06 1.06 0 0 1-.373-.062.62.62 0 0 1-.268-.188.551.551 0 0 1-.117-.316h-.648c.01.241.072.446.188.614.117.168.28.296.487.384.208.087.454.131.737.131.29 0 .539-.045.744-.135a1.08 1.08 0 0 0 .472-.378.986.986 0 0 0 .163-.563.904.904 0 0 0-.089-.412.915.915 0 0 0-.241-.3 1.396 1.396 0 0 0-.343-.206 2.34 2.34 0 0 0-.396-.13l-.34-.085a2.135 2.135 0 0 1-.223-.066 1.017 1.017 0 0 1-.2-.095.472.472 0 0 1-.144-.142.41.41 0 0 1 .028-.44.523.523 0 0 1 .226-.17.908.908 0 0 1 .353-.062c.196 0 .354.044.476.13Zm-7.5-.638.8 1.331h.029l.804-1.331h.751l-1.12 1.818L10.546 17h-.764l-.81-1.323h-.028L8.134 17h-.76l1.15-1.818-1.135-1.818h.755ZM11.045 17v-3.636h.659v3.084h1.602V17h-2.26Z" clip-rule="evenodd"/>
</svg>
