<svg xmlns="http://www.w3.org/2000/svg" width="120" height="120" fill="none" viewBox="0 0 24 24">
  <path fill="#BB2540" fill-rule="evenodd" d="M6.653 2.556h7.639v2.43a2.361 2.361 0 0 0 2.36 2.361h2.362v4.514H5.125V4.083c0-.843.684-1.527 1.528-1.527ZM4.569 11.86h-.277a.694.694 0 0 0-.695.695v4.86c0 .384.311.695.695.695h.277v1.806c0 1.15.933 2.083 2.084 2.083h10.833c1.15 0 2.083-.933 2.083-2.083V18.11h.14c.383 0 .694-.31.694-.694v-4.861a.694.694 0 0 0-.695-.695h-.139V7.07L14.57 2H6.653c-1.15 0-2.084.933-2.084 2.083v7.778Zm14.445 6.25v1.806c0 .843-.684 1.527-1.528 1.527H6.653a1.528 1.528 0 0 1-1.528-1.527V18.11h13.889ZM14.847 3.073l3.668 3.719h-1.862a1.806 1.806 0 0 1-1.806-1.806V3.073Zm-6.76 13.532v.475h2.901v-.66H9.092l1.893-2.654v-.475H8.084v.66h1.894l-1.89 2.654Zm4.317-3.314v3.79h-.8v-3.79h.8Zm.66 3.79v-3.79h1.494c.288 0 .533.055.735.165.202.108.356.26.462.453.108.192.161.414.161.666 0 .252-.054.474-.162.666a1.124 1.124 0 0 1-.472.45 1.585 1.585 0 0 1-.744.16h-.674v1.23h-.8Zm1.344-1.871h-.543v-1.264h.54a.83.83 0 0 1 .385.08.507.507 0 0 1 .225.22c.05.093.076.203.076.329a.702.702 0 0 1-.076.331.527.527 0 0 1-.226.224.808.808 0 0 1-.38.08Z" clip-rule="evenodd"/>
</svg>
