<svg xmlns="http://www.w3.org/2000/svg" width="512" height="512" fill="none" viewBox="0 0 512 512">
  <path fill="url(#a)" d="M116.87 360.091c-9.184-17.001-26.564-21.78-39.184-32.596-15.69-13.448-29.08-28.38-36.369-48.29-4.898-13.389-4.423-26.649-.444-39.76 5.984-19.692.119-36.148-11.316-50.18 0 5.462.306 12.023-.09 18.554-.404 6.58-1.5 13.111-2.3 19.662l-1.709.149c-2.28-7.62-4.828-15.16-6.774-22.859-3.515-13.923-6.24-27.984-3.673-42.461 1.205-6.789 3.88-12.835 9.845-18 .168 2.454.365 4.304.395 6.164.04 2.435-.227 4.889-.05 7.303.376 5.136 1.63 10.064 7.308 11.677 5.5 1.554 8.483-2.464 11.139-6.293 2.528-3.642 4.71-7.521 7.07-11.281 5.856-9.302 14.566-10.559 22.791-3.216 8.137 7.263 11.653 17.228 15.83 26.886 2.31 5.353 5.55 10.37 8.887 15.179 1.55 2.237 4.335 3.612 6.596 5.403.85-1.049 1.264-1.385 1.452-1.811 6.33-14.586 18.13-18.306 31.086-9.232 6.122 4.295 10.398 10.074 11.287 18.198 1.787 16.317-12.917 23.719-26.05 17.406-4.779-2.306-8.453-6.917-12.64-10.47-1.056-.9-2.192-2.582-3.209-2.523-8.779.495-13.825-5.136-18.614-11.093-2.775-3.453-4.967-7.382-7.762-10.825-1.096-1.346-3.1-1.95-4.69-2.9-.504 1.801-1.946 4.028-1.353 5.324 2.548 5.601 5.362 11.142 8.74 16.268 2.596 3.939 6.151 7.254 9.321 10.816 7.436 8.352 11.652 17.99 12.373 29.261 1.471 22.957 12.324 40.077 32.419 51.278.543.307.997.762 2.874 2.247-5.096.583-8.828 1.217-12.601 1.415-17.942.979-30.987-7.145-40.871-21.701-7.288-10.747-11.989-22.463-14.753-35.96-3.575 7.52-4.869 14.576-4.513 22.037.642 13.675 3.456 26.955 11.652 37.959 4.898 6.561 12.275 11.231 18.308 16.991 5.668 5.412 11.692 10.647 16.363 16.862 4.986 6.639 5.016 14.773 3.229 24.412Z"/>
  <path fill="url(#b)" d="M398.331 280.867c-18.081 4.819-35.095 12.429-51.655 21.078-12.047 6.293-15.138 12.132-13.222 23.848.632 3.839.967 7.976 2.666 11.36 5.322 10.549 5.905 21.434 3.812 32.744-.662 3.582-.632 7.709 3.288 8.758 3.081.821 7.169.247 10.092-1.178 5.234-2.563 8.384-7.451 9.401-13.23 1.491-8.54 6.221-13.992 13.943-17.763 3.506-1.712 6.152-5.254 9.045-8.114 1.709-1.692 3.131-3.671 4.691-5.531.375.227.75.445 1.126.672-2.39 4.612-4.681 9.282-7.169 13.834-7.229 13.191-14.102 26.609-21.952 39.424-5.846 9.549-14.328 15.912-26.474 14.517-2.716-.307-5.728-.911-7.91-2.395-8.947-6.106-16.541-2.553-23.078 3.552-10.753 10.034-19.552 21.592-23.452 36.198-2.143 8.025-7.15 12.587-15.879 13.359.138-.732.089-1.395.385-1.841 4.987-7.698 7.011-16.367 7.554-25.292 1.087-18.03 8.572-32.527 22.604-43.758 1.669-1.336 3.051-3.009 4.72-4.344 11.158-8.956 12.768-19.97 7.258-32.656-1.708-3.918-3.121-7.965-4.612-11.983-3.564-9.638-1.826-17.654 6.992-22.73 12.333-7.095 25.121-13.586 38.265-18.999 15.671-6.482 32.29-9.797 49.561-9.53Z"/>
  <path fill="url(#c)" d="M403.861 167.158c4.483-1.484 8.887-3.394 13.479-4.373 11.593-2.464 22.811-.693 33.772 3.681 12.314 4.918 24.737 9.559 37.84 14.595-.335 3.909-3.268 7.254-7.149 9.104-4.217 2.009-8.976 2.87-13.519 4.186-4.029 1.168-8.087 2.266-12.096 4.315 3.999.851 8.058 1.494 11.998 2.582 12.294 3.424 17.231 11.261 14.595 23.71-2.637 12.439-10.705 20.672-21.656 26.381-.424.218-.938.317-1.422.366-.296.03-.622-.118-.918-.188 2.34-3.315 5.016-6.442 6.942-9.984 3.673-6.739 1.649-14.774-4.454-19.395-3.752-2.84-9.223-2.543-14.466 1.82-7.179 5.967-13.934 12.469-20.826 18.782-11.544 10.568-23.996 19.583-39.885 22.166-7.643 1.237-15.414 1.722-23.126 2.553-.139-.505-.287-.999-.425-1.504 7.031-5.274 14.151-10.45 21.083-15.843 7.929-6.165 16.372-10.529 26.691-11.488 8.927-.832 15.662-11.123 14.694-20.949-.484-4.879-2.163-9.836-1.679-14.586 1.165-11.42 10.013-16.714 19.088-21.424 2.153-1.118 4.493-1.88 6.824-2.83-7.209-8.876-22.149-12.3-44.97-10.519-.128-.376-.277-.762-.415-1.158Z"/>
  <path fill="url(#d)" d="M370.139 209.511c-9.451-3.523-19.256-6.323-28.213-10.836-5.46-2.751-10.052-7.728-14.18-12.468-2.311-2.652-3.9-4.107-7.189-2.523-3.002 1.435-6.013 2.84-9.015 4.265-.02.643-.03 1.296-.05 1.939 3.476 1.465 7.021 2.771 10.398 4.433 3.328 1.633 6.982 3.088 9.599 5.562 6.833 6.471 7.159 12.607 2.34 20.721-1.777 2.998-2.874 6.392-4.276 9.608 3.249-.336 6.537-.455 9.747-1.039 10.269-1.86 20.273-.346 30.296 1.89 5.302 1.188 10.684 1.999 15.849-.92 6.557-3.701 9.825-10.499 8.443-17.931-3.071-16.545-17.36-25.381-33.437-20.681-1.056.307-2.103.623-3.258.594 5.678-5.641 12.798-6.917 20.164-5.413 13.173 2.691 26.751 14.784 24.895 31.794-1.126 10.351-8.542 18.861-18.891 19.039-7.811.138-15.849-.297-23.423-2.048-13.756-3.187-24.45 1.355-33.653 11.003-4.286 4.493-8.404 9.203-12.215 14.111-10.863 14.012-25.023 18.337-41.968 14.883-6.35-1.296-10.221-4.344-13.055-9.955 4.878 1.118 9.766 2.603 14.773 3.315 19.058 2.741 39.825-9.569 46.303-27.816.958-2.692-.267-6.768-1.689-9.599-5.707-11.34-16.204-17.416-26.899-22.987-6.201-3.226-12.728-5.828-19.73-9.005 10.122-11.894 21.36-21.285 36.369-24.59 6.429-1.415 13.282-1.178 19.937-1.148 3.605.01 6.054 2.138 7.713 5.829 4.503 10.024 12.551 16.416 22.396 21.008 4.483 2.088 8.433 5.314 12.62 8.025-.237.317-.464.633-.701.94Zm-55.724-5.868c3.427 5.611 6.774 11.083 10.161 16.624 6.449-6.798 1.659-14.289-10.161-16.624Z"/>
  <path fill="url(#e)" d="M330.294 139.975c8.917 1.989 16.511 4.305 24.262 5.275 11.05 1.385 20.323-2.771 27.225-11.628 2.805-3.602 5.204-7.53 8.236-11.953 2.409 7.688-.109 13.735-4.079 19.128-8.581 11.657-20.756 15.635-34.66 14.764-6.527-.406-12.966-2.009-19.493-2.583-12.047-1.069-23.887-.336-35.056 5.828 6.646-16.02 16.235-30.537 19.681-49.022-3.012.772-5.155 1.425-7.347 1.861-4.394.87-8.828 1.583-13.232 2.464-1.235.247-2.765.544-3.535 1.395-5.935 6.521-11.919 13.002-17.469 19.84-4.75 5.849-9.549 11.42-17.35 12.874-1.699.317-3.614-.524-5.431-.831.612-2.048.582-4.799 1.935-6.046a1204.258 1204.258 0 0 1 30.849-27.668c19.305-16.723 39.391-32.348 62.666-43.322 3.999-1.89 8.058-3.642 11.385-5.146.603 2.147.701 4.512 1.827 6.175 3.131 4.621 6.784 8.886 10.073 13.398 7.208 9.906 5.638 17.792-4.859 24.145-8.976 5.423-18.555 9.985-25.339 18.436-3.239 4.047-6.557 8.045-10.289 12.616Zm21.596-68.783c-18.249 7.659-32.794 21.641-48.495 34.011 1.995-.683 3.861-1.623 5.451-2.91 7.169-5.818 14.14-6.145 21.892-.663 9.194 6.512 19.118 4.424 28.627.495 5.115-2.108 5.975-5.73 3.289-10.835-3.545-6.769-7.209-13.478-10.764-20.098Z"/>
  <path fill="url(#f)" d="M235.328 309.881c-1.047-3.661-2.311-7.273-3.081-10.984-1.689-8.184-2.222-16.773-8.917-22.987-6.557-6.076-14.595-8.352-23.482-9.589-.593 4.7-1.047 8.985-1.679 13.24-2.321 15.823-14.042 20.078-26.978 15.981-6.389-2.028-12.274-6.907-17.32-11.647-7.653-7.174-14.378-15.338-21.478-23.096-.405-.435-.612-1.059-1.383-2.444 5.708 1.257 10.685 2.078 15.484 3.483 5.846 1.712 9.421 6.027 12.472 11.222 2.005 3.424 4.799 7.006 8.147 8.827 2.893 1.563 7.485 1.83 10.605.702 4.562-1.652 6.211-6.59 5.471-11.152-.77-4.76-2.271-9.628-4.552-13.854-5.027-9.311-9.224-18.623-6.686-29.548 2.084-8.995 7.742-15.506 15.01-20.691.987-.703 3.703-.455 4.602.415 6.418 6.215 14.437 8.926 22.731 11.212 7.476 2.058 14.902 4.285 20.234 10.499 1.116 1.296 2.074 2.731 2.528 4.968-5.333-1.781-10.596-3.889-16.037-5.245-6.023-1.494-12.185-2.533-18.337-3.325-4.76-.613-8.364 1.712-10.053 6.234-1.609 4.295.168 8.016 3.792 10.133 7.041 4.117 14.368 7.758 21.665 11.44 3.21 1.622 6.775 2.582 9.915 4.324 10.329 5.71 16.283 14.239 14.634 26.421-1.145 8.48-3.308 16.822-5.016 25.223-.77.09-1.531.159-2.291.238Z"/>
  <path fill="url(#g)" d="M108.229 111.882c14.388 2.751 26.119-2.454 36.27-12.834 9.915 6.095 19.977 11.726 25.537 22.571 3.337 6.511 4.137 13.013.059 19.554-.78 1.256-1.481 2.563-2.173 3.869-4.029 7.649-3.14 12.043 2.499 18.653 3.535 4.136 6.221 9.005 9.292 13.547-.553.524-1.116 1.039-1.669 1.563-7.416-5.897-15.128-11.469-22.129-17.822-4.385-3.977-3.072-9.638-1.353-14.773-11.169-1.485-18.812-.149-19.414 15.882-.119 3.048 1.718 7.035-2.449 9.183-10.329-11.449-6.083-29.617 7.969-34.743 4.315-1.574 8.759-2.84 12.956-4.691 4.246-1.86 4.907-4.571 2.725-8.737-2.982-5.69-14.99-10.895-20.569-8.154-2.331 1.138-3.486 4.621-5.254 6.976-.938 1.257-1.807 3.028-3.09 3.483-3.387 1.188-6.952 2.029-10.507 2.553-10.882 1.623-19.79-1.514-25.675-11.36-1.353-2.256-2.824-4.453-3.98-6.808-6.122-12.448-13.913-22.562-30.088-21.325-.01-.415-.03-.821-.04-1.237 1.373-.84 2.647-1.949 4.128-2.483C72.877 80.513 82.1 84.976 90.237 93c1.511 1.495 2.686 3.325 4.108 4.918 1.56 1.752 3.654 5.077 4.75 4.79 3.812-.99 8.087-2.484 10.744-5.195 5.786-5.918 5.855-13.745 4.266-21.394-1.126-5.393-2.973-10.628-4.079-16.12 9.046 7.204 14.26 16.466 14.279 28.123.01 11.3-5.065 19.474-16.076 23.759Z"/>
  <path fill="url(#h)" d="M214.146 436.009c-14.545-9.797-29.486-19.544-44.081-29.795-11.198-7.867-19.868-18.347-26.366-30.271-10.289-18.88-8.127-42.55 11.988-55.296 1.778-1.128 3.723-1.979 5.827-3.077 3.179 7.026 8.601 8.777 15.71 8.777 13.746-.01 24.747 6.739 34.365 16.031.424.405.582 1.098 1.254 2.444-5.984-1.692-11.188-3.543-16.54-4.592-9.935-1.949-19.977-3.354-29.931-5.175-3.476-.633-5.155.841-6.29 3.81-2.992 7.857-3.052 15.704.839 23.175 6.113 11.736 12.531 23.304 18.9 34.901 3.555 6.472 8.977 10.668 15.948 13.132 9.905 3.493 18.437 16.021 18.377 25.936Z"/>
  <path fill="url(#i)" d="M269.376 328.207c-1.54.258-2.765.466-3.979.663 7.919-3.829 8.808-12.032 12.639-18.544-.602 2.296-1.293 4.572-1.787 6.888-.642 2.978-2.39 5.739.178 9.054.908 1.168-.445 4.473-1.323 6.571-1.037 2.473-3.832 4.72-3.802 7.045.069 5.423-3.456 7.006-7.238 8.609-1.798.762-3.773 1.217-5.708 1.475-7.041.93-9.016 3.493-12.393 11.676 1.758 0 3.278.06 4.799-.01 7.426-.366 13.074 2.435 16.58 9.183 3.14 6.047 6.34 12.073 9.727 18.525-6.36-.574-10.132-4.384-13.203-8.867-7.179-10.489-8.028-10.815-19.838-5.581-3.447 1.534-6.083 3.474-8.147 7.145-5.145 9.133-13.479 13.953-25.329 14.952 17.775-12.795 21.102-31.765 26.257-50.249-3.733-.792-7.08-1.287-10.299-2.247-6.083-1.801-7.861-5.66-6.024-11.746.918-3.047 1.392-6.234 3.012-9.806.533 2.702 1.609 5.423 1.501 8.095-.267 6.788.849 7.807 7.613 8.045 5.333.188 10.635 1.415 15.948 2.196.158.02.296.149.444.198 13.154 4.503 18.358 1.207 20.372-13.27Z"/>
  <path fill="url(#j)" d="M432.291 148.495c3.179-4.819 6.389-8.836 8.67-13.329 3.614-7.115 1.975-9.875-5.747-11.122-.968-.159-1.956-.277-2.904-.535-4.167-1.118-6.082.079-6.872 4.74-2.321 13.517-12.788 19.554-23.996 24.482-4.296 1.89-8.937 2.978-13.953 3.503.898-.634 1.738-1.376 2.696-1.89 12.807-6.878 20.756-17.06 23.196-31.775a83.727 83.727 0 0 1 6.458-21.047c1.777-3.86 5.934-6.75 9.381-9.629 1.145-.95 3.436-.524 6.379-.86-2.133 3.443-3.506 5.65-4.859 7.827 7.969 5.818 11.179 4.66 14.102-3.998.72-2.128 3.347-5.373 4.651-5.175 2.478.386 5.431 2.444 6.626 4.66.721 1.326-.948 4.909-2.548 6.353-5.382 4.879-11.396 8.204-19.197 5.354-1.382-.505-3.406.732-5.135 1.167.899 1.544 1.432 3.761 2.775 4.493 2.686 1.464 5.817 2.108 8.759 3.127 8.137 2.82 12.087 7.144 11.968 14.21-.049 2.691-1.175 5.709-2.695 7.976-3.279 4.838-11.09 9.608-17.755 11.468Z"/>
  <path fill="url(#k)" d="M255.364 178.944c-8.295-4.226-15.879-7.719-23.028-11.954-2.113-1.257-3.644-4.463-4.296-7.065-2.36-9.47-10.299-14.002-19.354-10.321-1.452.593-2.943 2.404-3.388 3.948-2.063 7.125-8.196 12.162-16.303 12.775 5.273-7.234 10.211-14.616 15.79-21.463 4.424-5.433 11.317-4.226 18.071-6.076-1.491-.871-2.893-2.068-4.493-2.494-1.126-.297-2.568.337-3.802.742-8.245 2.732-10.052 2.207-15.967-4.868 4.305.663 8.561 1.306 12.807 1.959.119-.623.237-1.247.356-1.86-9.391-3.384-18.772-6.759-28.855-10.39-.177-2.781-.395-7.244 4.632-8.184 4.394-.821 7.159 2.019 8.561 6.392 1.797 5.591 9.717 8.57 16.935 5.403 5.303-2.325 8.631-.732 12.285 2.534 7.337 6.55 12.166 14.051 10.112 24.501-.376 1.91-.346 3.938-.277 5.907.128 3.583.227 6.057 5.688 5.888 6.221-.188 9.322 5.957 12.729 10.559.641.9.928 2.068 1.797 4.067Z"/>
  <path fill="url(#l)" d="M409.44 327.238c4.069-2.266 8.295-3.523 5.372-8.738-4.196-7.511-6.991-8.629-12.817-6.343-11.109 4.354-22.396 8.243-33.634 12.27-.987.357-2.123.327-3.436-.069 18.732-10.548 34.818-25.54 56.513-31.586-3.268-5.225-7.159-3.998-10.862-3.068-3.535.891-7.001 1.999-10.586 2.682 8.789-8.411 18.871-8.124 29.615-3.78.415 3.196-.198 7.975 1.738 11.231 2.992 5.027 7.455.584 11.751-.673-1.225 5.077-4.543 6.591-8.631 7.026-4.552.485-7.594-1.356-8.463-6.323-1.026.138-1.826.119-2.547.366-8.453 2.81-8.404 3.038-2.834 9.5 2.854 3.315 5.836 7.015 3.476 11.933-2.37 4.919-6.774 6.67-14.655 5.572Z"/>
  <path fill="url(#m)" d="M247.01 445.38c-8.542-.317-13.707-2.068-16.462-7.798-2.597-5.422-.711-10.341 2.686-14.665 4.533-5.789 10.774-8.718 18.012-8.53 5.885.149 11.02 2.642 13.045 8.718 2.172 6.502-.603 12.241-5.293 16.13-3.94 3.275-9.312 4.839-11.988 6.145Z"/>
  <path fill="url(#n)" d="M62.321 102.828c-3.318 5.482-6.428 11.083-9.993 16.397-3.92 5.848-8.413 11.32-12.334 17.168-2.459 3.672-4.72 3.246-7.505.653-5.391-5.017-6.685-14.853-2.251-20.8 7.712-10.331 19.285-12.429 30.71-14.715.455.426.91.861 1.373 1.297Z"/>
  <path fill="url(#o)" d="M283.705 255.169c-2.005-.703-6.064-1.346-9.194-3.414-5.816-3.83-4.829-11.192 1.462-14.141 5.48-2.573 13.854-1.435 17.626 3.226 1.669 2.068 2.854 5.799 2.192 8.204-1.274 4.631-5.747 5.769-12.086 6.125Z"/>
  <path fill="url(#p)" d="M330.333 270.725c-1.994 6.511-3.93 13.032-5.994 19.513-.839 2.633-2.281 5.116-2.863 7.788-.968 4.453-3.496 4.087-6.488 2.533-3.772-1.959-6.597-7.678-5.273-11.765 3.071-9.52 10.467-14.774 18.742-18.99.622.307 1.244.614 1.876.921Z"/>
  <path fill="url(#q)" d="M189.716 183.664c4.641 3.107 9.717 5.739 13.785 9.47 3.851 3.533 3.407 8.421-.493 11.459-1.334 1.039-5.066 1.356-5.748.475-4.572-5.878-8.206-12.34-9.114-19.88.523-.505 1.047-1.019 1.57-1.524Z"/>
  <path fill="url(#r)" d="M192.718 309.762c-6.774 5.562-13.519 8.639-20.925 10.104-1.086.217-3.278-1.336-3.762-2.553-1.708-4.216.978-8.946 5.589-10.262 6.35-1.831 12.176.396 19.098 2.711Z"/>
  <path fill="url(#s)" d="M252.174 205.127c-.296 6.69-4.414 10.994-10.23 10.786-4.059-.138-5.925-2.246-5.876-6.214.07-5.413 5.57-11.251 10.517-11.043 4.118.168 5.51 2.81 5.589 6.471Z"/>
  <path fill="url(#t)" d="M471.652 168.959c5.372-5.551 15.73-8.164 21.063-5.452 4.532 2.305 5.806 6.264 5.105 11.548-8.68-2.019-17.143-3.998-26.168-6.096Z"/>
  <path fill="url(#u)" d="M320.202 161.518c5.994-1.217 11.8-1.9 17.458.386 5.175 2.098 6.656 8.441 3.585 12.587a16056.6 16056.6 0 0 0-21.043-12.973Z"/>
  <path fill="url(#v)" d="M447.133 82.987c5.628.812 11.326 1.297 16.836 2.603 2.301.544 4.809 2.493 6.004 4.522.77 1.296-.118 5.086-1.294 5.67-1.955.97-6.616.92-6.882.168-2.518-7.302-8.038-10.29-15.375-11.191.246-.584.483-1.178.711-1.772Z"/>
  <path fill="url(#w)" d="M145.793 83.779c-2.133 5.314-4.207 10.648-6.409 15.922-1.175 2.84-3.041 2.108-4.562.415-2.607-2.89-3.318-6.54-.76-9.43 2.913-3.275 6.734-5.75 10.161-8.57.533.565 1.056 1.109 1.57 1.663Z"/>
  <path fill="url(#x)" d="M150.306 128.843c-4.809-1.306-9.648-2.494-14.378-4.037-.731-.238-1.649-2.524-1.294-3.038 1.116-1.613 2.726-3.84 4.286-3.959 2.163-.158 4.829.901 6.577 2.316 2.3 1.87 3.9 4.582 5.806 6.937-.336.603-.662 1.187-.997 1.781Z"/>
  <path fill="url(#y)" d="M247.632 327.04c3.476 1.237 7.386 1.88 10.24 3.968 1.333.979 1.728 5.502.632 7.075-1.886 2.711-3.851-.02-5.313-1.702-2.133-2.454-4.196-4.977-6.28-7.471.227-.623.474-1.247.721-1.87Z"/>
  <path fill="url(#z)" d="M440.615 92.24a5236.7 5236.7 0 0 1-10.418-10.608l.8-1.485c4.098.228 8.502.416 11.248 4.107 1.234 1.662.632 4.7.859 7.125l-2.489.86Z"/>
  <path fill="url(#A)" d="M223.31 114.455c-3.12 2.434-6.231 4.868-9.351 7.303-.455-.089-.909-.188-1.363-.277.168-1.96-.375-4.998.632-5.651 2.696-1.751 6.053-2.473 9.144-3.602.316.733.622 1.475.938 2.227Z"/>
  <path fill="url(#B)" d="M434.335 288.813c-1.314-3.186-2.617-6.362-3.93-9.549l1.451-1.157c1.936 2.028 4.246 3.839 5.639 6.194.602 1.009-.701 3.157-1.136 4.79-.671-.09-1.353-.179-2.024-.278Z"/>
  <path fill="url(#C)" d="M352.413 79.732c-4.345 6.67-8.808 13.28-12.995 20.058-1.629 2.642-3.12 1.751-4.75.435-3.969-3.196-4.098-10.212-.158-14.081 4.622-4.532 10.478-6.393 16.61-7.5l1.293 1.088Z"/>
  <defs>
    <linearGradient id="a" x1="498" x2="14" y1="256" y2="256" gradientUnits="userSpaceOnUse">
      <stop stop-color="#0969A4"/>
      <stop offset="1" stop-color="#0ABFBC"/>
    </linearGradient>
    <linearGradient id="b" x1="498" x2="14" y1="256" y2="256" gradientUnits="userSpaceOnUse">
      <stop stop-color="#0969A4"/>
      <stop offset="1" stop-color="#0ABFBC"/>
    </linearGradient>
    <linearGradient id="c" x1="498" x2="14" y1="256" y2="256" gradientUnits="userSpaceOnUse">
      <stop stop-color="#0969A4"/>
      <stop offset="1" stop-color="#0ABFBC"/>
    </linearGradient>
    <linearGradient id="d" x1="498" x2="14" y1="256" y2="256" gradientUnits="userSpaceOnUse">
      <stop stop-color="#0969A4"/>
      <stop offset="1" stop-color="#0ABFBC"/>
    </linearGradient>
    <linearGradient id="e" x1="498" x2="14" y1="256" y2="256" gradientUnits="userSpaceOnUse">
      <stop stop-color="#0969A4"/>
      <stop offset="1" stop-color="#0ABFBC"/>
    </linearGradient>
    <linearGradient id="f" x1="498" x2="14" y1="256" y2="256" gradientUnits="userSpaceOnUse">
      <stop stop-color="#0969A4"/>
      <stop offset="1" stop-color="#0ABFBC"/>
    </linearGradient>
    <linearGradient id="g" x1="498" x2="14" y1="256" y2="256" gradientUnits="userSpaceOnUse">
      <stop stop-color="#0969A4"/>
      <stop offset="1" stop-color="#0ABFBC"/>
    </linearGradient>
    <linearGradient id="h" x1="498" x2="14" y1="256" y2="256" gradientUnits="userSpaceOnUse">
      <stop stop-color="#0969A4"/>
      <stop offset="1" stop-color="#0ABFBC"/>
    </linearGradient>
    <linearGradient id="i" x1="498" x2="14" y1="256" y2="256" gradientUnits="userSpaceOnUse">
      <stop stop-color="#0969A4"/>
      <stop offset="1" stop-color="#0ABFBC"/>
    </linearGradient>
    <linearGradient id="j" x1="498" x2="14" y1="256" y2="256" gradientUnits="userSpaceOnUse">
      <stop stop-color="#0969A4"/>
      <stop offset="1" stop-color="#0ABFBC"/>
    </linearGradient>
    <linearGradient id="k" x1="498" x2="14" y1="256" y2="256" gradientUnits="userSpaceOnUse">
      <stop stop-color="#0969A4"/>
      <stop offset="1" stop-color="#0ABFBC"/>
    </linearGradient>
    <linearGradient id="l" x1="498" x2="14" y1="256" y2="256" gradientUnits="userSpaceOnUse">
      <stop stop-color="#0969A4"/>
      <stop offset="1" stop-color="#0ABFBC"/>
    </linearGradient>
    <linearGradient id="m" x1="498" x2="14" y1="256" y2="256" gradientUnits="userSpaceOnUse">
      <stop stop-color="#0969A4"/>
      <stop offset="1" stop-color="#0ABFBC"/>
    </linearGradient>
    <linearGradient id="n" x1="498" x2="14" y1="256" y2="256" gradientUnits="userSpaceOnUse">
      <stop stop-color="#0969A4"/>
      <stop offset="1" stop-color="#0ABFBC"/>
    </linearGradient>
    <linearGradient id="o" x1="498" x2="14" y1="256" y2="256" gradientUnits="userSpaceOnUse">
      <stop stop-color="#0969A4"/>
      <stop offset="1" stop-color="#0ABFBC"/>
    </linearGradient>
    <linearGradient id="p" x1="498" x2="14" y1="256" y2="256" gradientUnits="userSpaceOnUse">
      <stop stop-color="#0969A4"/>
      <stop offset="1" stop-color="#0ABFBC"/>
    </linearGradient>
    <linearGradient id="q" x1="498" x2="14" y1="256" y2="256" gradientUnits="userSpaceOnUse">
      <stop stop-color="#0969A4"/>
      <stop offset="1" stop-color="#0ABFBC"/>
    </linearGradient>
    <linearGradient id="r" x1="498" x2="14" y1="256" y2="256" gradientUnits="userSpaceOnUse">
      <stop stop-color="#0969A4"/>
      <stop offset="1" stop-color="#0ABFBC"/>
    </linearGradient>
    <linearGradient id="s" x1="498" x2="14" y1="256" y2="256" gradientUnits="userSpaceOnUse">
      <stop stop-color="#0969A4"/>
      <stop offset="1" stop-color="#0ABFBC"/>
    </linearGradient>
    <linearGradient id="t" x1="498" x2="14" y1="256" y2="256" gradientUnits="userSpaceOnUse">
      <stop stop-color="#0969A4"/>
      <stop offset="1" stop-color="#0ABFBC"/>
    </linearGradient>
    <linearGradient id="u" x1="498" x2="14" y1="256" y2="256" gradientUnits="userSpaceOnUse">
      <stop stop-color="#0969A4"/>
      <stop offset="1" stop-color="#0ABFBC"/>
    </linearGradient>
    <linearGradient id="v" x1="498" x2="14" y1="256" y2="256" gradientUnits="userSpaceOnUse">
      <stop stop-color="#0969A4"/>
      <stop offset="1" stop-color="#0ABFBC"/>
    </linearGradient>
    <linearGradient id="w" x1="498" x2="14" y1="256" y2="256" gradientUnits="userSpaceOnUse">
      <stop stop-color="#0969A4"/>
      <stop offset="1" stop-color="#0ABFBC"/>
    </linearGradient>
    <linearGradient id="x" x1="498" x2="14" y1="256" y2="256" gradientUnits="userSpaceOnUse">
      <stop stop-color="#0969A4"/>
      <stop offset="1" stop-color="#0ABFBC"/>
    </linearGradient>
    <linearGradient id="y" x1="498" x2="14" y1="256" y2="256" gradientUnits="userSpaceOnUse">
      <stop stop-color="#0969A4"/>
      <stop offset="1" stop-color="#0ABFBC"/>
    </linearGradient>
    <linearGradient id="z" x1="498" x2="14" y1="256" y2="256" gradientUnits="userSpaceOnUse">
      <stop stop-color="#0969A4"/>
      <stop offset="1" stop-color="#0ABFBC"/>
    </linearGradient>
    <linearGradient id="A" x1="498" x2="14" y1="256" y2="256" gradientUnits="userSpaceOnUse">
      <stop stop-color="#0969A4"/>
      <stop offset="1" stop-color="#0ABFBC"/>
    </linearGradient>
    <linearGradient id="B" x1="498" x2="14" y1="256" y2="256" gradientUnits="userSpaceOnUse">
      <stop stop-color="#0969A4"/>
      <stop offset="1" stop-color="#0ABFBC"/>
    </linearGradient>
    <linearGradient id="C" x1="498" x2="14" y1="256" y2="256" gradientUnits="userSpaceOnUse">
      <stop stop-color="#0969A4"/>
      <stop offset="1" stop-color="#0ABFBC"/>
    </linearGradient>
  </defs>
</svg>
